<?xml version="1.0" encoding="UTF-8"?>
<svg width="500px" height="500px" viewBox="0 0 500 500" version="1.1" xmlns="http://www.w3.org/2000/svg" xmlns:xlink="http://www.w3.org/1999/xlink">
    <!-- Generator: Sketch 58 (84663) - https://sketch.com -->
    <title>004-refresh</title>
    <desc>Created with Sketch.</desc>
    <g id="Page-1" stroke="none" stroke-width="1" fill="none" fill-rule="evenodd">
        <g id="004-refresh">
            <rect id="Rectangle" fill="#1BC05B" x="0" y="0" width="500" height="500" rx="67"></rect>
            <g id="005-forever" transform="translate(93.000000, 92.000000)" fill="#FFFFFF" fill-rule="nonzero">
                <path d="M233.905012,231 C274.209277,231 307,198.252151 307,158 C307,117.747849 274.209277,85 233.905012,85 C216.729447,85 196.176701,95.0430625 171.072965,115.703077 C170.950328,115.803974 170.830611,115.904288 170.708559,116.005185 L200.999828,146.395655 C224.164736,127.890642 233.50615,127.667269 233.905012,127.667269 C250.651932,127.667269 264.276871,141.27381 264.276871,157.999417 C264.276871,174.725023 250.652516,188.331565 233.905012,188.331565 C233.489215,188.331565 223.425996,188.093611 198.242838,167.368859 C195.331092,164.972405 148.066316,119.109086 143.927619,115.703077 C118.823883,95.0430625 98.2711367,85 81.0955723,85 C40.7907227,85 8,117.747849 8,158 C8,198.252151 40.7907227,231 81.0949883,231 C98.2705527,231 118.823299,220.956354 143.927035,200.29634 C144.040912,200.202442 144.152453,200.109126 144.265746,200.015228 L114.07025,169.546023 C90.859791,188.102942 81.4956016,188.332148 81.0949883,188.332148 C64.3480684,188.332148 50.7231289,174.725607 50.7231289,158 C50.7231289,141.274393 64.3474844,127.667852 81.0949883,127.667852 C81.5072812,127.667852 92.6339355,126.579562 116.430131,148.362276 C128.569414,159.474382 168.049094,197.976871 171.072381,200.296923 C196.868723,220.088522 216.729447,231 233.905012,231 Z" id="Path" transform="translate(157.500000, 158.000000) rotate(-45.000000) translate(-157.500000, -158.000000) "></path>
            </g>
        </g>
    </g>
</svg>