<svg xmlns="http://www.w3.org/2000/svg" width="500" height="500" viewBox="0 0 375 375"><path style="stroke:none;fill-rule:evenodd;fill:#0587fc;fill-opacity:1" d="M50.25 0h274.5C352.504 0 375 22.496 375 50.25v274.5c0 27.754-22.496 50.25-50.25 50.25H50.25C22.496 375 0 352.504 0 324.75V50.25C0 22.496 22.496 0 50.25 0Zm0 0"/><path style="stroke:none;fill-rule:nonzero;fill:#fff;fill-opacity:1" d="M121.73 300h131.54c10.878 0 19.73-8.871 19.73-19.777V140.918h-46.04c-10.878 0-19.73-8.871-19.73-19.773V75h-85.5C110.852 75 102 83.871 102 94.777v185.446c0 10.906 8.852 19.777 19.73 19.777Zm26.61-132h79.07c3.645 0 6.59 2.852 6.59 6.375s-2.945 6.375-6.59 6.375h-79.07c-3.645 0-6.59-2.852-6.59-6.375s2.945-6.375 6.59-6.375Zm0 26.25h79.07c3.645 0 6.59 2.852 6.59 6.375S231.055 207 227.41 207h-79.07c-3.645 0-6.59-2.852-6.59-6.375s2.945-6.375 6.59-6.375Zm0 26.25h79.07c3.645 0 6.59 2.852 6.59 6.375s-2.945 6.375-6.59 6.375h-79.07c-3.645 0-6.59-2.852-6.59-6.375s2.945-6.375 6.59-6.375Zm.012 26.25h52.796c3.649 0 6.602 2.852 6.602 6.375s-2.953 6.375-6.602 6.375h-52.796c-3.649 0-6.602-2.852-6.602-6.375s2.953-6.375 6.602-6.375Zm0 0"/><path style="stroke:none;fill-rule:nonzero;fill:#fff;fill-opacity:1" d="M227.074 127.5h42.176L220.5 78.75v42.176a6.582 6.582 0 0 0 6.574 6.574Zm0 0"/></svg>