<?xml version="1.0" encoding="UTF-8"?>
<svg width="500px" height="500px" viewBox="0 0 500 500" version="1.1" xmlns="http://www.w3.org/2000/svg" xmlns:xlink="http://www.w3.org/1999/xlink">
    <!-- Generator: Sketch 58 (84663) - https://sketch.com -->
    <title>003-google-docs</title>
    <desc>Created with Sketch.</desc>
    <g id="Page-1" stroke="none" stroke-width="1" fill="none" fill-rule="evenodd">
        <g id="003-google-docs">
            <rect id="Rectangle" fill="#0587FC" x="0" y="0" width="500" height="500" rx="67"></rect>
            <path d="M162.307692,400 L337.692308,400 C352.198954,400 364,388.172266 364,373.632812 L364,187.890625 L302.615385,187.890625 C288.108738,187.890625 276.307692,176.062891 276.307692,161.523438 L276.307692,100 L162.307692,100 C147.801046,100 136,111.827734 136,126.367188 L136,373.632812 C136,388.172266 147.801046,400 162.307692,400 Z M197.785714,224 L303.214286,224 C308.070443,224 312,227.801767 312,232.5 C312,237.198233 308.070443,241 303.214286,241 L197.785714,241 C192.929557,241 189,237.198233 189,232.5 C189,227.801767 192.929557,224 197.785714,224 Z M197.785714,259 L303.214286,259 C308.070443,259 312,262.801767 312,267.5 C312,272.198233 308.070443,276 303.214286,276 L197.785714,276 C192.929557,276 189,272.198233 189,267.5 C189,262.801767 192.929557,259 197.785714,259 Z M197.785714,294 L303.214286,294 C308.070443,294 312,297.801767 312,302.5 C312,307.198233 308.070443,311 303.214286,311 L197.785714,311 C192.929557,311 189,307.198233 189,302.5 C189,297.801767 192.929557,294 197.785714,294 Z M197.8,329 L268.2,329 C273.064053,329 277,332.801767 277,337.5 C277,342.198233 273.064053,346 268.2,346 L197.8,346 C192.935947,346 189,342.198233 189,337.5 C189,332.801767 192.935947,329 197.8,329 Z" id="Shape" fill="#FFFFFF" fill-rule="nonzero"></path>
            <path d="M302.767118,170 L359,170 L294,105 L294,161.232882 C294,166.069993 297.930007,170 302.767118,170 Z" id="Path" fill="#FFFFFF" fill-rule="nonzero"></path>
        </g>
    </g>
</svg>