<?xml version="1.0" encoding="UTF-8"?>
<svg width="500px" height="500px" viewBox="0 0 500 500" version="1.1" xmlns="http://www.w3.org/2000/svg" xmlns:xlink="http://www.w3.org/1999/xlink">
    <!-- Generator: Sketch 58 (84663) - https://sketch.com -->
    <title>004-refresh</title>
    <desc>Created with Sketch.</desc>
    <g id="Page-1" stroke="none" stroke-width="1" fill="none" fill-rule="evenodd">
        <g id="004-refresh">
            <rect id="Rectangle" fill="#1BC05B" x="0" y="0" width="500" height="500" rx="67"></rect>
            <path d="M136.904015,264.195443 C136.327014,259.389408 136.030532,254.615291 136.030532,250.41571 C136.030532,187.729782 187.757582,136.019307 250.463603,136.019307 C279.712729,136.019307 307.096296,147.808685 327.238852,166.193821 L317.137926,176.467063 C314.861854,178.742406 313.98609,182.068784 314.861854,185.221889 C315.913226,188.197163 318.364907,190.474785 321.516743,191.174716 C323.279672,191.528101 381.194081,210.184545 377.506297,209.443577 C382.19756,211.00531 389.135248,206.003204 387.842129,199.113337 C387.48635,197.348693 374.664628,133.034914 375.405834,136.719237 C374.705679,133.568411 372.427327,130.941963 369.275491,130.066481 C366.299264,129.190998 362.969539,130.066481 360.693466,132.341824 L352.111442,140.745545 C325.662934,116.058758 289.346125,101 250.463603,101 C168.317462,101 101,168.295891 101,250.41571 L101,250.764535 C101,255.700525 101.225783,259.514803 101.488056,262.433078 C101.836993,266.299793 104.687784,269.466578 108.496443,270.230346 L126.488361,273.825752 C132.345028,274.997623 137.611011,270.088991 136.904015,264.195443 L136.904015,264.195443 Z" id="Path" fill="#FFFFFF" fill-rule="nonzero"></path>
            <path d="M392.55577,230.853328 L374.510809,227.180239 C368.647109,225.986257 363.344464,230.896621 364.065167,236.814123 C364.690081,241.920447 364.968328,246.885497 364.968328,250.670237 C364.968328,313.317828 313.239593,365.000837 250.531531,365.000837 C221.281453,365.000837 193.896993,353.218241 173.753782,334.668229 L183.855037,324.576348 C186.131183,322.302313 187.006975,318.977848 186.131183,315.826557 C185.079777,312.850716 182.628016,310.576683 179.476078,309.877155 C177.713091,309.521695 119.796796,290.878261 123.4847,291.618803 C120.506096,291.094726 117.527491,291.969705 115.602574,294.068288 C113.499761,295.993698 112.623969,299.142711 113.148532,301.9431 C113.504323,303.704451 126.328743,367.397915 125.587513,363.715711 C126.28541,366.867003 128.563836,369.491941 131.715775,370.364641 C135.37175,371.280635 138.423336,370.17324 140.298079,368.090607 L148.707048,359.691719 C175.154137,384.366585 211.472128,400 250.531531,400 C332.680347,400 400,332.742819 400,250.670237 L400,250.143883 C400,246.26572 399.858596,242.458194 399.534736,238.673454 C399.201752,234.806685 396.362271,231.630328 392.55577,230.853328 Z" id="Path" fill="#FFFFFF" fill-rule="nonzero"></path>
        </g>
    </g>
</svg>