<svg xmlns="http://www.w3.org/2000/svg" width="500" height="500" viewBox="0 0 375 375"><path style="stroke:none;fill-rule:evenodd;fill:#1bc05b;fill-opacity:1" d="M50.25 0h274.5C352.504 0 375 22.496 375 50.25v274.5c0 27.754-22.496 50.25-50.25 50.25H50.25C22.496 375 0 352.504 0 324.75V50.25C0 22.496 22.496 0 50.25 0Zm0 0"/><path style="stroke:none;fill-rule:nonzero;fill:#fff;fill-opacity:1" d="M102.68 198.148c-.434-3.605-.657-7.187-.657-10.335 0-47.016 38.793-85.797 85.825-85.797 21.937 0 42.472 8.84 57.582 22.629l-7.578 7.707c-1.707 1.707-2.364 4.199-1.707 6.566.789 2.23 2.628 3.937 4.992 4.465 1.324.262 44.758 14.254 41.992 13.699 3.52 1.172 8.723-2.578 7.754-7.746-.27-1.324-9.883-49.559-9.328-46.797-.528-2.363-2.235-4.332-4.598-4.988-2.234-.656-4.73 0-6.437 1.707l-6.438 6.3c-19.836-18.515-47.074-29.808-76.234-29.808-61.61 0-112.098 50.473-112.098 112.063v.261c0 3.703.168 6.563.367 8.75a6.56 6.56 0 0 0 5.254 5.848l13.496 2.7c4.39.878 8.34-2.806 7.813-7.224ZM294.418 173.14l-13.535-2.753c-4.399-.899-8.375 2.785-7.832 7.222.465 3.832.676 7.555.676 10.395 0 46.984-38.797 85.746-85.829 85.746-21.937 0-42.476-8.836-57.582-22.75l7.575-7.566c1.707-1.707 2.363-4.2 1.707-6.563-.79-2.234-2.625-3.937-4.993-4.465-1.32-.265-44.757-14.246-41.992-13.691-2.234-.395-4.468.262-5.91 1.836-1.578 1.445-2.234 3.804-1.84 5.906.266 1.32 9.883 49.09 9.328 46.328.524 2.363 2.23 4.332 4.594 4.988 2.742.688 5.031-.144 6.438-1.707l6.308-6.296c19.836 18.503 47.074 30.23 76.367 30.23C249.512 300 300 249.559 300 188.004v-.395c0-2.91-.105-5.765-.348-8.605a6.56 6.56 0 0 0-5.234-5.863Zm0 0"/></svg>