<svg xmlns="http://www.w3.org/2000/svg" width="500" height="500" viewBox="0 0 375 375"><path style="stroke:none;fill-rule:evenodd;fill:#2343c8;fill-opacity:1" d="M50.25 0h274.5C352.504 0 375 22.496 375 50.25v274.5c0 27.754-22.496 50.25-50.25 50.25H50.25C22.496 375 0 352.504 0 324.75V50.25C0 22.496 22.496 0 50.25 0Zm0 0"/><path style="stroke:none;fill-rule:nonzero;fill:#fff;fill-opacity:1" d="M296.477 180.75a7.934 7.934 0 0 0-.704-.418l-15.968-8.582-88.543 46.79a8.038 8.038 0 0 1-7.524 0l-88.543-46.79-15.968 8.582c-3.88 2.055-5.356 6.863-3.297 10.734.129.243.27.477.422.704L187.5 250.5l111.148-58.73a7.932 7.932 0 0 0-2.171-11.02Zm0 0"/><path style="stroke:none;fill-rule:nonzero;fill:#fff;fill-opacity:1" d="M299.035 231.648a8.07 8.07 0 0 0-3.254-3.27l-15.969-8.628-88.55 47.055a8.016 8.016 0 0 1-7.524 0l-88.55-47.055-15.97 8.629c-3.902 2.117-5.359 7.012-3.253 10.93a8.06 8.06 0 0 0 3.254 3.265l104.472 56.461a8.007 8.007 0 0 0 7.618 0l104.472-56.46c3.903-2.114 5.36-7.009 3.254-10.927ZM296.477 132.625a7.97 7.97 0 0 0-.704-.422L191.31 75.961a8.028 8.028 0 0 0-7.618 0L79.227 132.203a7.955 7.955 0 0 0-2.875 11.457L187.5 202.5l111.148-58.84a7.95 7.95 0 0 0-2.171-11.035Zm0 0"/></svg>