<?xml version="1.0" encoding="UTF-8"?>
<svg width="500px" height="500px" viewBox="0 0 500 500" version="1.1" xmlns="http://www.w3.org/2000/svg" xmlns:xlink="http://www.w3.org/1999/xlink">
    <!-- Generator: Sketch 58 (84663) - https://sketch.com -->
    <title>004-refresh</title>
    <desc>Created with Sketch.</desc>
    <g id="Page-1" stroke="none" stroke-width="1" fill="none" fill-rule="evenodd">
        <g id="004-refresh">
            <rect id="Rectangle" fill="#2343C8" x="0" y="0" width="500" height="500" rx="67"></rect>
            <g id="001-layers" transform="translate(100.000000, 100.000000)" fill="#FFFFFF" fill-rule="nonzero">
                <path d="M295.300936,141.001468 C294.998342,140.799083 294.686331,140.612363 294.364275,140.441934 L273.075313,129 L155.014518,191.386455 C151.878083,193.04438 148.122648,193.04438 144.986212,191.386455 L26.9260456,129 L5.63645585,140.441934 C0.462216681,143.183211 -1.50653047,149.591847 1.24004759,154.7561 C1.41080627,155.076908 1.59788747,155.388944 1.80066341,155.690954 L150.000365,234 L298.200067,155.690954 C301.463944,150.835604 300.166303,144.259045 295.300936,141.001468 Z" id="Path"></path>
                <path d="M298.712136,208.862447 C297.719544,207.016775 296.21088,205.502555 294.372607,204.506938 L273.082418,193 L155.014819,255.740885 C151.878203,257.408229 148.122551,257.408229 144.985935,255.740885 L26.9183353,193 L5.6275185,204.506938 C0.419706351,207.328063 -1.52278561,213.851875 1.28798895,219.078864 C2.280581,220.924537 3.78924557,222.438757 5.6275185,223.434374 L144.921269,298.714992 C148.091787,300.428336 151.908338,300.428336 155.078857,298.714992 L294.372607,223.434374 C299.579791,220.613249 301.522911,214.089437 298.712136,208.862447 Z" id="Path"></path>
                <path d="M295.300936,76.8322119 C294.998342,76.629459 294.686331,76.442399 294.364275,76.2716597 L155.07918,1.28007392 C151.908845,-0.426691308 148.092514,-0.426691308 144.922178,1.28007392 L5.63645585,76.2716597 C0.462216681,79.017926 -1.50653047,85.4382256 1.24004759,90.6118773 C1.41080627,90.933269 1.59788747,91.2458725 1.80066341,91.5484326 L150.000365,170 L298.200067,91.5484326 C301.463944,86.6842458 300.166303,80.0957178 295.300936,76.8322119 Z" id="Path"></path>
            </g>
        </g>
    </g>
</svg>