<svg xmlns="http://www.w3.org/2000/svg" width="500" height="500" viewBox="0 0 375 375"><path style="stroke:none;fill-rule:evenodd;fill:#34beff;fill-opacity:1" d="M50.25 0h274.5C352.504 0 375 22.496 375 50.25v274.5c0 27.754-22.496 50.25-50.25 50.25H50.25C22.496 375 0 352.504 0 324.75V50.25C0 22.496 22.496 0 50.25 0Zm0 0"/><path style="stroke:none;fill-rule:nonzero;fill:#fff;fill-opacity:1" d="M283.367 96.883c-28.18-28.176-74.027-28.176-102.207 0-19.246 19.25-25.93 47.613-17.597 73.347l-81.387 81.387a6.564 6.564 0 0 0-1.926 4.645v37.168a6.565 6.565 0 0 0 6.57 6.57h37.168c1.742 0 3.41-.691 4.645-1.926l9.289-9.297a6.57 6.57 0 0 0 1.879-5.402l-1.153-9.98 13.832-1.305a6.557 6.557 0 0 0 5.922-5.922l1.301-13.832 9.984 1.16c1.852.25 3.72-.371 5.125-1.617a6.584 6.584 0 0 0 2.2-4.906v-12.235h12.011a6.563 6.563 0 0 0 4.645-1.922l16.848-16.625c25.73 8.34 53.601 2.157 72.851-17.101 28.176-28.18 28.176-74.028 0-102.207Zm-18.586 46.457c-7.687 7.687-20.183 7.687-27.87 0-7.688-7.684-7.688-20.184 0-27.871 7.687-7.684 20.183-7.684 27.87 0 7.684 7.687 7.684 20.187 0 27.87Zm0 0"/></svg>