<?xml version="1.0" encoding="UTF-8"?>
<svg width="500px" height="500px" viewBox="0 0 500 500" version="1.1" xmlns="http://www.w3.org/2000/svg" xmlns:xlink="http://www.w3.org/1999/xlink">
    <!-- Generator: Sketch 58 (84663) - https://sketch.com -->
    <title>004-refresh</title>
    <desc>Created with Sketch.</desc>
    <g id="Page-1" stroke="none" stroke-width="1" fill="none" fill-rule="evenodd">
        <g id="004-refresh">
            <rect id="Rectangle" fill="#34BEFF" x="0" y="0" width="500" height="500" rx="67"></rect>
            <g id="002-key" transform="translate(107.000000, 101.000000)" fill="#FFFFFF" fill-rule="nonzero">
                <path d="M270.821531,28.1780946 C233.250239,-9.3930875 172.120387,-9.39250352 134.549095,28.1786785 C108.885851,53.8418468 99.9718964,91.661222 111.083973,125.97319 L2.56661634,234.490813 C0.923865086,236.133559 0,238.35737 0,240.684545 L0,290.240243 C0,295.082053 3.91795882,299 8.75978273,299 L58.3156256,299 C60.6422239,299 62.8666247,298.076138 64.508792,296.433391 L76.8957088,284.037751 C78.7860699,282.147395 79.709935,279.495525 79.4021746,276.834895 L77.8622048,263.524152 L96.3056354,261.787384 C100.497483,261.393779 103.808097,258.083175 104.201704,253.891339 L105.938476,235.447962 L119.249258,236.996104 C121.721269,237.329558 124.210799,236.499717 126.084225,234.840619 C127.948891,233.172762 129.018168,230.794196 129.018168,228.296497 L129.018168,211.986413 L145.032219,211.986413 C147.358817,211.986413 149.583218,211.062551 151.225385,209.419804 L173.689556,187.252947 C207.992865,198.373751 245.158287,190.131403 270.821531,164.450715 C308.392823,126.880117 308.392823,65.7492766 270.821531,28.1780946 Z M246.040106,90.1212567 C235.791744,100.369589 219.127717,100.369589 208.879355,90.1212567 C198.630993,79.8729249 198.630993,63.2089471 208.879355,52.9606153 C219.127717,42.7122835 235.791744,42.7122835 246.040106,52.9606153 C256.288467,63.2089471 256.287883,79.8729249 246.040106,90.1212567 Z" id="Shape"></path>
            </g>
        </g>
    </g>
</svg>