<svg xmlns="http://www.w3.org/2000/svg" width="550" height="159" viewBox="0 0 549 159"><path style="stroke:none;fill-rule:nonzero;fill:#0387fc;fill-opacity:1" d="M80.04 66.984 141.75 5.23c6.902-6.918 18.105-6.921 25.016-.011.004 0 .004.004 0 .011l61.71 61.754c6.903 6.914 6.903 18.118 0 25.032l-61.71 61.754c-6.903 6.917-18.102 6.921-25.016.011 0 0-.004-.004 0-.011L80.04 92.016c-6.9-6.914-6.9-18.118 0-25.032Zm0 0"/><path style="stroke:none;fill-rule:nonzero;fill:#34beff;fill-opacity:1" d="M5.223 66.984 66.933 5.23C73.837-1.688 85.04-1.69 91.95 5.22c.004 0 .004.004 0 .011l61.711 61.754c6.903 6.914 6.903 18.118 0 25.032L91.95 153.77c-6.903 6.917-18.102 6.921-25.016.011 0 0-.004-.004 0-.011L5.223 92.016c-6.899-6.914-6.899-18.118 0-25.032Zm0 0"/><path style="stroke:none;fill-rule:nonzero;fill:#fff;fill-opacity:1" d="M52.55 38.563h33.907c16.758.07 25.137 6.335 25.137 18.804 0 4.086-1.196 7.535-3.59 10.352-2.395 2.82-5.914 4.578-10.563 5.285v.105c5.211.704 9.172 2.516 11.883 5.442 2.711 2.922 4.067 6.566 4.067 10.933 0 6.055-2.149 10.704-6.442 13.946-4.297 3.238-10.597 4.86-18.91 4.86H52.551Zm30.634 28.523c6.546 0 9.82-2.535 9.82-7.606 0-5.07-3.274-7.605-9.82-7.605H70.082v15.21Zm1.793 28.418c3.238 0 5.687-.668 7.343-2.004 1.653-1.34 2.48-3.277 2.48-5.813 0-2.464-.827-4.347-2.48-5.652-1.656-1.3-4.105-1.953-7.343-1.953H70.082v15.422Zm60.738-41.094c8.8 0 15.648 2.41 20.543 7.235 4.894 4.824 7.34 11.57 7.34 20.234 0 8.66-2.446 15.406-7.34 20.23-4.895 4.825-11.742 7.235-20.543 7.235-8.805 0-15.653-2.41-20.547-7.235-4.895-4.824-7.34-11.57-7.34-20.23 0-8.664 2.445-15.41 7.34-20.234 4.894-4.825 11.742-7.235 20.547-7.235Zm0 12.781c-3.383 0-5.883 1.164-7.5 3.489-1.598 2.289-2.406 5.949-2.43 10.976v.223c0 5.14.809 8.871 2.43 11.195 1.617 2.324 4.117 3.489 7.5 3.489 3.379 0 5.879-1.165 7.5-3.489 1.617-2.324 2.426-6.054 2.426-11.195 0-5.145-.809-8.875-2.426-11.2-1.621-2.324-4.121-3.488-7.5-3.488Zm60.418-12.78c8.8 0 15.648 2.41 20.543 7.234 4.894 4.824 7.344 11.57 7.344 20.234 0 8.66-2.45 15.406-7.344 20.23-4.895 4.825-11.742 7.235-20.543 7.235-8.801 0-15.653-2.41-20.547-7.235-4.89-4.824-7.34-11.57-7.34-20.23 0-8.664 2.45-15.41 7.34-20.234 4.894-4.825 11.746-7.235 20.547-7.235Zm0 12.78c-3.38 0-5.88 1.164-7.5 3.489-1.598 2.289-2.406 5.949-2.43 10.976v.223c0 5.14.809 8.871 2.43 11.195 1.62 2.324 4.12 3.489 7.5 3.489 3.379 0 5.879-1.165 7.5-3.489 1.617-2.324 2.43-6.054 2.43-11.195 0-5.145-.813-8.875-2.43-11.2-1.621-2.324-4.121-3.488-7.5-3.488Zm56.933 42.153c-12.113 0-20.703-3.098-25.773-9.297l9.293-10.14c3.031 5 8.242 7.5 15.637 7.5 2.46 0 4.398-.333 5.808-1.005 1.406-.668 2.114-1.566 2.114-2.691 0-.988-.723-1.852-2.168-2.59-1.442-.738-3.926-1.46-7.446-2.164l-.511-.102c-7.618-1.543-13.063-3.62-16.336-6.238-3.344-2.676-5.02-6.234-5.02-10.672 0-3.027.953-5.879 2.856-8.554 1.898-2.68 4.77-4.844 8.605-6.5 3.84-1.657 8.504-2.48 13.996-2.48 6.059 0 11.004.823 14.84 2.48 3.84 1.656 6.957 4.136 9.351 7.449l-9.296 9.086c-1.692-2.465-3.696-4.262-6.02-5.387-2.324-1.129-5.105-1.691-8.348-1.691-2.535 0-4.503.386-5.914 1.16-1.406.777-2.113 1.726-2.113 2.855 0 1.055.723 1.953 2.168 2.692l.16.082c1.465.71 3.93 1.406 7.39 2.086 7.747 1.336 13.329 3.328 16.743 5.968 3.414 2.641 5.125 6.25 5.125 10.829 0 5.14-2.148 9.312-6.445 12.52-4.297 3.202-10.528 4.804-18.696 4.804Zm69.61-4.012c-1.762 1.195-3.996 2.164-6.707 2.902a30.88 30.88 0 0 1-8.188 1.11c-6.265 0-11.054-1.336-14.367-4.012-3.309-2.676-5-6.973-5.07-12.89V68.25h-9.082V55.465h9.082V43.633l17.957-4.965v16.797h15.844V68.25H316.3v21.234c0 4.72 2.324 7.079 6.972 7.079 2.887 0 5.422-.774 7.606-2.325Zm70.347-12.785h-24.086l-4.855 15.742h-18.273l24.503-69.727h21.758l24.403 69.727h-18.696Zm-3.804-12.36-5.07-16.69-3.063-10.99h-.211l-2.852 10.884-5.28 16.797Zm64.855-25.777c6.903 0 12.254 2.395 16.055 7.184 3.805 4.789 5.707 11.48 5.707 20.07 0 8.734-1.938 15.531-5.813 20.39-3.87 4.86-9.187 7.29-15.949 7.29-3.73 0-6.953-.88-9.664-2.64-2.71-1.759-4.805-4.192-6.285-7.29v31.063h-17.957V55.465h15.738l.528 11.2c1.48-3.735 3.75-6.708 6.816-8.927 3.063-2.218 6.672-3.328 10.824-3.328Zm-6.23 41.73c3.168 0 5.617-1.163 7.34-3.488 1.726-2.324 2.59-5.914 2.59-10.773 0-4.863-.864-8.453-2.59-10.777-1.723-2.325-4.172-3.489-7.34-3.489-3.028 0-5.406 1.164-7.13 3.489-1.726 2.324-2.589 5.738-2.589 10.246v1.058c0 4.367.844 7.746 2.535 10.14 1.692 2.395 4.086 3.595 7.184 3.595Zm69.398-41.73c6.899 0 12.25 2.395 16.055 7.184 3.8 4.789 5.703 11.48 5.703 20.07 0 8.734-1.938 15.531-5.809 20.39-3.875 4.86-9.191 7.29-15.949 7.29-3.734 0-6.957-.88-9.668-2.64-2.71-1.759-4.804-4.192-6.285-7.29v31.063h-17.953V55.465h15.738l.528 11.2c1.476-3.735 3.75-6.708 6.812-8.927 3.063-2.218 6.672-3.328 10.828-3.328Zm-6.234 41.73c3.168 0 5.617-1.163 7.344-3.488 1.722-2.324 2.586-5.914 2.586-10.773 0-4.863-.864-8.453-2.586-10.777-1.727-2.325-4.176-3.489-7.344-3.489-3.028 0-5.403 1.164-7.13 3.489-1.726 2.324-2.589 5.738-2.589 10.246v1.058c0 4.367.848 7.746 2.535 10.14 1.692 2.395 4.086 3.595 7.184 3.595Zm0 0"/></svg>