<?xml version="1.0" encoding="UTF-8"?>
<svg width="480px" height="481px" viewBox="0 0 480 481" version="1.1" xmlns="http://www.w3.org/2000/svg" xmlns:xlink="http://www.w3.org/1999/xlink">
    <!-- Generator: Sketch 58 (84663) - https://sketch.com -->
    <title>004-global</title>
    <desc>Created with Sketch.</desc>
    <g id="Page-1" stroke="none" stroke-width="1" fill="none" fill-rule="evenodd">
        <g id="004-global" transform="translate(0.000000, -1.000000)" fill-rule="nonzero">
            <path d="M146.972656,386.6875 L119.972656,378.960938 L119.972656,368.808594 C130.007812,361.316406 135.9375,349.539062 135.972656,337.015625 L135.972656,329.015625 C140.390625,329.015625 143.972656,325.433594 143.972656,321.015625 L143.972656,313.015625 C143.972656,286.507812 122.480469,265.015625 95.972656,265.015625 C69.460938,265.015625 47.972656,286.507812 47.972656,313.015625 L47.972656,321.015625 C47.972656,325.433594 51.554688,329.015625 55.972656,329.015625 L55.972656,337.015625 C56.007812,349.539062 61.9375,361.316406 71.972656,368.808594 L71.972656,378.960938 L44.980469,386.679688 C27.828125,391.636719 16.007812,407.324219 15.972656,425.175781 L15.972656,457.015625 C15.972656,461.433594 19.554688,465.015625 23.972656,465.015625 L167.972656,465.015625 C172.390625,465.015625 175.972656,461.433594 175.972656,457.015625 L175.972656,425.175781 C175.933594,407.328125 164.117188,391.644531 146.972656,386.6875 L146.972656,386.6875 Z M95.972656,281.015625 C113.5625,281.015625 127.851562,295.210938 127.972656,312.800781 C125.675781,312.242188 123.742188,310.699219 122.691406,308.585938 L119.132812,301.449219 C118.109375,299.390625 116.25,297.875 114.03125,297.285156 C111.808594,296.695312 109.441406,297.085938 107.53125,298.359375 L95.628906,306.296875 C89.0625,310.6875 81.335938,313.027344 73.4375,313.015669 L63.972656,313.015669 C63.972656,295.34375 78.300781,281.015625 95.972656,281.015625 L95.972656,281.015625 Z M73.4375,329.015625 C84.496094,329.03125 95.308594,325.753906 104.5,319.609375 L108.882812,316.6875 C111.402344,321.132812 115.292969,324.640625 119.972656,326.6875 L119.972656,337.015625 C119.972656,350.269531 109.226562,361.015625 95.972656,361.015625 C82.71875,361.015625 71.972656,350.269531 71.972656,337.015625 L71.972656,329.015625 L73.4375,329.015625 Z M95.972656,377.015625 C98.660156,377.019531 101.339844,376.75 103.972656,376.214844 L103.972656,385.015625 C103.996094,387.292969 105.003906,389.453125 106.730469,390.9375 L95.972656,399.015625 L85.210938,390.9375 C86.941406,389.453125 87.949219,387.292969 87.972656,385.015625 L87.972656,376.214844 C90.605469,376.75 93.285156,377.019531 95.972656,377.015625 L95.972656,377.015625 Z M159.972656,449.015625 L143.972656,449.015625 L143.972656,425.015625 L127.972656,425.015625 L127.972656,449.015625 L63.972656,449.015625 L63.972656,425.015625 L47.972656,425.015625 L47.972656,449.015625 L31.972656,449.015625 L31.972656,425.175781 C31.992188,414.460938 39.078125,405.042969 49.371094,402.0625 L66.773438,397.097656 L91.171875,415.417969 C94.015625,417.550781 97.925781,417.550781 100.773438,415.417969 L125.171875,397.105469 L142.582031,402.070312 C152.871094,405.050781 159.957031,414.464844 159.972656,425.175781 L159.972656,449.015625 Z" id="Shape" fill="#2443C8"></path>
            <path d="M332.980469,138.679688 C315.828125,143.636719 304.007812,159.324219 303.972656,177.175781 L303.972656,209.015625 C303.972656,213.433594 307.554688,217.015625 311.972656,217.015625 L455.972656,217.015625 C460.390625,217.015625 463.972656,213.433594 463.972656,209.015625 L463.972656,177.175781 C463.933594,159.328125 452.117188,143.644531 434.972656,138.6875 L407.972656,130.960938 L407.972656,120.808594 C418.007812,113.316406 423.9375,101.539062 423.972656,89.015625 L423.972656,81.015625 C428.390625,81.015625 431.972656,77.433594 431.972656,73.015625 L431.972656,65.015625 C431.972656,38.507812 410.480469,17.015625 383.972656,17.015625 C357.460938,17.015625 335.972656,38.507812 335.972656,65.015625 L335.972656,73.015625 C335.972656,77.433594 339.554688,81.015625 343.972656,81.015625 L343.972656,89.015625 C344.007812,101.539062 349.9375,113.316406 359.972656,120.808594 L359.972656,130.960938 L332.980469,138.679688 Z M447.972656,177.175781 L447.972656,201.015625 L431.972656,201.015625 L431.972656,177.015625 L415.972656,177.015625 L415.972656,201.015625 L351.972656,201.015625 L351.972656,177.015625 L335.972656,177.015625 L335.972656,201.015625 L319.972656,201.015625 L319.972656,177.175781 C319.992188,166.460938 327.078125,157.042969 337.371094,154.0625 L354.773438,149.097656 L379.171875,167.417969 C382.015625,169.550781 385.925781,169.550781 388.773438,167.417969 L413.171875,149.105469 L430.582031,154.070312 C440.871094,157.050781 447.957031,166.464844 447.972656,177.175781 Z M383.972656,33.015625 C401.5625,33.015625 415.851562,47.210938 415.972656,64.800781 C413.675781,64.242188 411.742188,62.699219 410.691406,60.585938 L407.171875,53.449219 C406.148438,51.390625 404.289062,49.875 402.070312,49.285156 C399.851562,48.695312 397.484375,49.085938 395.570312,50.359375 L383.667969,58.296875 C377.101562,62.6875 369.375,65.027344 361.476562,65.0156688 L351.972656,65.0156688 C351.972656,47.34375 366.300781,33.015625 383.972656,33.015625 Z M361.4375,81.015625 C372.496094,81.03125 383.308594,77.753906 392.5,71.609375 L396.882812,68.6875 C399.402344,73.132812 403.292969,76.640625 407.972656,78.6875 L407.972656,89.015625 C407.972656,102.269531 397.226562,113.015625 383.972656,113.015625 C370.71875,113.015625 359.972656,102.269531 359.972656,89.015625 L359.972656,81.015625 L361.4375,81.015625 Z M383.972656,129.015625 C386.660156,129.019531 389.339844,128.75 391.972656,128.214844 L391.972656,137.015625 C391.996094,139.292969 393.003906,141.453125 394.730469,142.9375 L383.972656,151.015625 L373.210938,142.9375 C374.941406,141.453125 375.949219,139.292969 375.972656,137.015625 L375.972656,128.214844 C378.605469,128.75 381.285156,129.019531 383.972656,129.015625 Z" id="Shape" fill="#16C05B"></path>
            <path d="M471.972656,233.015625 L247.972656,233.015625 L247.972656,136.824219 C276.480469,135.953125 304.605469,129.976562 331.003906,119.175781 L324.941406,104.359375 C300.464844,114.378906 274.402344,119.953125 247.972656,120.824219 L247.972656,17.726562 C270.949219,21.136719 293.171875,39.007812 311.277344,69.136719 L324.988281,60.894531 C316.90625,47.050781 306.734375,34.535156 294.835938,23.792969 C305.09375,26.371094 315.152344,29.679688 324.941406,33.6875 L331.003906,18.886719 C233.519531,-21.011719 121.414062,7.300781 54.558594,88.699219 C-12.296875,170.097656 -18.277344,285.566406 39.804688,373.441406 L53.140625,364.59375 C30.390625,330.21875 17.625,290.210938 16.261719,249.015625 L231.972656,249.015625 L231.972656,345.207031 C203.460938,346.082031 175.339844,352.058594 148.941406,362.855469 L155.003906,377.671875 C179.476562,367.652344 205.542969,362.078125 231.972656,361.207031 L231.972656,473.015625 C231.972656,477.433594 235.554688,481.015649 239.972656,481.015649 C372.542969,481.074219 480.03125,373.589844 479.97268,241.015625 C479.97268,236.597656 476.390625,233.015625 471.972656,233.015625 Z M351.972656,321.015625 C343.136719,321.015625 335.972656,313.851562 335.972656,305.015625 C335.972656,296.179688 343.136719,289.015625 351.972656,289.015625 C360.808594,289.015625 367.972656,296.179688 367.972656,305.015625 C367.972656,313.851562 360.808594,321.015625 351.972656,321.015625 Z M231.972656,17.671875 L231.972656,120.871094 C204.496094,119.90625 177.429688,113.890625 152.132812,103.121094 C171.84375,53.328125 200.964844,22.265625 231.972656,17.671875 Z M137.628906,96.265625 C122.980469,88.753906 109.207031,79.648438 96.554688,69.113281 C122.367188,47.511719 152.722656,32.015625 185.355469,23.785156 C164.046875,43.921875 147.707031,68.734375 137.628906,96.265625 Z M84.582031,79.902344 C99.132812,92.28125 115.109375,102.875 132.171875,111.464844 C128.398438,122.660156 125.195312,134.039062 122.570312,145.558594 C109,147.828125 98.417969,158.558594 96.347656,172.164062 C94.273438,185.765625 101.179688,199.164062 113.460938,205.367188 C112.746094,214.550781 112.316406,223.769531 112.171875,233.015625 L16.171875,233.015625 C18.21875,175.03125 42.753906,120.117188 84.582031,79.902344 Z M127.972656,193.015625 C119.136719,193.015625 111.972656,185.851562 111.972656,177.015625 C111.972656,168.179688 119.136719,161.015625 127.972656,161.015625 C136.808594,161.015625 143.972656,168.179688 143.972656,177.015625 C143.972656,185.851562 136.808594,193.015625 127.972656,193.015625 Z M128.15625,233.015625 C128.300781,224.957031 128.660156,216.914062 129.234375,208.886719 C144.546875,208.351562 157.304688,196.996094 159.613281,181.851562 C161.921875,166.707031 153.125,152.0625 138.667969,146.992188 C140.984375,137.140625 143.695312,127.542969 146.804688,118.191406 C173.816406,129.558594 202.683594,135.875 231.972656,136.832031 L231.972656,233.015625 L128.15625,233.015625 Z M351.789062,249.015625 C351.644531,257.070312 351.285156,265.113281 350.707031,273.144531 C335.398438,273.679688 322.636719,285.039062 320.332031,300.183594 C318.023438,315.324219 326.820312,329.96875 341.277344,335.039062 C338.964844,344.890625 336.253906,354.492188 333.140625,363.839844 C306.128906,352.472656 277.261719,346.15625 247.972656,345.199219 L247.972656,249.015625 L351.789062,249.015625 Z M247.972656,464.359375 L247.972656,361.199219 C275.449219,362.164062 302.515625,368.183594 327.8125,378.953125 C308.101562,428.703125 278.980469,459.769531 247.972656,464.359375 Z M342.300781,385.761719 C356.976562,393.28125 370.773438,402.40625 383.445312,412.960938 C357.648438,434.535156 327.320312,450.015625 294.714844,458.25 C315.957031,438.078125 332.242188,413.269531 342.300781,385.761719 Z M395.46875,402.214844 C380.890625,389.800781 364.878906,379.175781 347.773438,370.566406 C351.542969,359.371094 354.75,347.992188 357.371094,336.472656 C370.945312,334.207031 381.523438,323.472656 383.597656,309.871094 C385.667969,296.265625 378.765625,282.871094 366.484375,276.664062 C367.195312,267.480469 367.621094,258.265625 367.773438,249.015625 L463.828125,249.015625 C461.664062,306.992188 437.167969,361.882812 395.46875,402.214844 Z" id="Shape" fill="#0787FC"></path>
        </g>
    </g>
</svg>