<?xml version="1.0" encoding="UTF-8"?>
<svg width="512px" height="513px" viewBox="0 0 512 513" version="1.1" xmlns="http://www.w3.org/2000/svg" xmlns:xlink="http://www.w3.org/1999/xlink">
    <!-- Generator: Sketch 58 (84663) - https://sketch.com -->
    <title>001-music-and-multimedia</title>
    <desc>Created with Sketch.</desc>
    <g id="Page-1" stroke="none" stroke-width="1" fill="none" fill-rule="evenodd">
        <g id="001-music-and-multimedia" fill-rule="nonzero">
            <path d="M486.4,281.6 L426.666667,281.6 L426.666667,34.1333333 C426.666667,15.2820139 411.384653,0 392.533333,0 L119.466667,0 C100.615347,0 85.3333333,15.2820139 85.3333333,34.1333333 L85.3333333,279.765333 C85.0432,280.0384 84.6933333,280.234667 84.4117333,280.5248 C79.1392239,285.683142 76.3784033,292.884334 76.8512,300.245333 C76.9799365,313.943661 71.2958701,327.054536 61.2096,336.324267 L40.5589333,356.974933 C38.610824,358.921247 36.3637324,360.543186 33.9029333,361.7792 L14.1482667,371.652267 C5.45339435,375.962905 -0.0338827093,384.842497 -0.000156017562,394.5472 L-0.000156017562,475.8528 C-0.0338827093,485.557503 5.45339435,494.437095 14.1482667,498.747733 L28.0405333,505.693867 C36.3391304,509.833382 45.4846613,511.991972 54.7584,512.0047 L135.4752,512.0047 C148.237977,512.162919 159.297024,503.189334 161.7664,490.666667 C162.748508,484.792684 161.659599,478.759953 158.685867,473.6 C164.803616,469.816947 169.025713,463.612543 170.299733,456.533333 C171.281841,450.659351 170.192933,444.62662 167.2192,439.466667 C173.336949,435.683614 177.559046,429.47921 178.833067,422.4 C179.815175,416.526018 178.726266,410.493286 175.752533,405.333333 C181.870282,401.550281 186.092379,395.345876 187.3664,388.266667 C188.622054,380.838123 186.541773,373.233627 181.679647,367.478659 C176.817521,361.723691 169.667252,358.402611 162.133333,358.4 L121.5232,358.442667 C122.376533,354.090667 123.477333,348.202667 124.501333,341.333333 L290.133333,341.333333 L290.133333,443.784533 C290.133333,457.923023 301.594844,469.384533 315.733333,469.384533 L346.624,469.384533 L389.7856,507.733333 C396.237884,513.428489 405.92105,513.428489 412.373333,507.733333 L455.509333,469.4016 L486.4,469.4016 C500.538489,469.4016 512,457.940089 512,443.8016 L512,307.2 C512,293.061511 500.538489,281.6 486.4,281.6 Z M119.466667,17.0666667 L392.533333,17.0666667 C401.958993,17.0666667 409.6,24.7076736 409.6,34.1333333 L409.6,238.933333 L102.4,238.933333 L102.4,34.1333333 C102.4,24.7076736 110.041007,17.0666667 119.466667,17.0666667 Z M121.531733,375.466667 L162.133333,375.466667 C164.653368,375.468989 167.043511,376.585065 168.663104,378.515738 C170.282697,380.446412 170.9661,382.994228 170.530133,385.476267 C169.435395,389.762848 165.496107,392.703092 161.0752,392.533333 L153.6,392.533333 C148.887171,392.533333 145.066667,396.353837 145.066667,401.066667 C145.066667,405.779496 148.887171,409.6 153.6,409.6 C156.120035,409.602323 158.510178,410.718398 160.129771,412.649072 C161.749364,414.579745 162.432767,417.127561 161.9968,419.6096 C160.902061,423.896181 156.962773,426.836425 152.541867,426.666667 L145.066667,426.666667 C140.353837,426.666667 136.533333,430.487171 136.533333,435.2 C136.533333,439.912829 140.353837,443.733333 145.066667,443.733333 C147.586702,443.735656 149.976845,444.851732 151.596437,446.782405 C153.216031,448.713079 153.899434,451.260895 153.463467,453.742933 C152.368728,458.029514 148.42944,460.969759 144.008533,460.8 L136.533333,460.8 C131.820504,460.8 128,464.620504 128,469.333333 C128,474.046163 131.820504,477.866667 136.533333,477.866667 C139.053368,477.868989 141.443511,478.985065 143.063104,480.915738 C144.682697,482.846412 145.3661,485.394228 144.930133,487.876267 C143.835395,492.162848 139.896107,495.103092 135.4752,494.933333 L54.7584,494.933333 C48.1331356,494.923025 41.5999702,493.381 35.6693333,490.427733 L21.7856,483.4816 C18.8866531,482.046494 17.0563168,479.087505 17.066623,475.8528 L17.066623,394.5472 C17.0563168,391.312495 18.8866531,388.353506 21.7856,386.9184 L41.5317333,377.045333 C45.6350916,374.989844 49.3807896,372.28718 52.6250667,369.041067 L73.2757333,348.3904 C86.8209988,335.67229 94.3093572,317.787744 93.8666667,299.2128 C93.6869393,296.733764 94.6261265,294.304401 96.4266667,292.590933 C97.9954347,290.985658 100.155761,290.096838 102.4,290.132252 C104.69924,290.125881 106.898845,291.071217 108.475733,292.744533 C110.068041,294.300982 110.955756,296.440129 110.933333,298.666667 C110.643031,317.627011 108.586135,336.519031 104.789333,355.0976 C103.801557,360.105908 105.107528,365.293418 108.348971,369.237008 C111.590413,373.180599 116.426946,375.466155 121.531733,375.466667 L121.531733,375.466667 Z M126.651733,324.266667 C127.453867,316.1088 128.008533,307.396267 128.008533,298.666667 C128.059505,291.908306 125.368542,285.417972 120.5504,280.6784 C115.724132,275.906839 109.18624,273.269551 102.4,273.3568 L102.4,256 L409.6,256 L409.6,281.6 L315.733333,281.6 C301.594844,281.6 290.133333,293.061511 290.133333,307.2 L290.133333,324.266667 L126.651733,324.266667 Z M494.933333,443.784533 C494.933333,448.497363 491.112829,452.317867 486.4,452.317867 L452.514133,452.317867 C452.4288,452.317867 452.352,452.266667 452.266667,452.266667 L418.133333,452.266667 C413.420504,452.266667 409.6,456.087171 409.6,460.8 C409.6,465.512829 413.420504,469.333333 418.133333,469.333333 L429.892267,469.333333 L401.066667,494.933333 L372.232533,469.333333 L384,469.333333 C388.712829,469.333333 392.533333,465.512829 392.533333,460.8 C392.533333,456.087171 388.712829,452.266667 384,452.266667 L349.866667,452.266667 C349.781333,452.266667 349.704533,452.317867 349.6192,452.317867 L315.733333,452.317867 C311.020504,452.317867 307.2,448.497363 307.2,443.784533 L307.2,307.2 C307.2,302.487171 311.020504,298.666667 315.733333,298.666667 L486.4,298.666667 C491.112829,298.666667 494.933333,302.487171 494.933333,307.2 L494.933333,443.784533 Z" id="Shape" fill="#0587FC"></path>
            <path d="M422.4,332.8 C414.46175,332.824323 406.83183,335.876291 401.066667,341.333333 C392.033329,332.589155 378.533197,330.343716 367.155729,335.693022 C355.77826,341.042329 348.89539,352.871176 349.866667,365.405867 C349.866667,384.5376 364.373333,397.218133 384.366933,414.779733 C387.822933,417.800533 391.492267,421.026133 395.357867,424.4992 C398.603227,427.420303 403.530106,427.420303 406.775467,424.4992 C410.641067,421.026133 414.3104,417.800533 417.7664,414.779733 C437.76,397.192533 452.266667,384.512 452.266667,365.380267 C452.699705,357.080492 449.780237,348.9547 444.164101,342.828298 C438.547965,336.701897 430.706052,333.088559 422.4,332.8 L422.4,332.8 Z M406.519467,401.92 C404.753067,403.464533 402.935467,405.051733 401.066667,406.7072 C399.197867,405.051733 397.380267,403.464533 395.613867,401.92 C376.2432,384.938667 366.933333,376.32 366.933333,365.380267 C366.55099,361.621086 367.689159,357.865259 370.093922,354.950685 C372.498685,352.036112 375.969963,350.205291 379.733333,349.866667 C385.557704,350.244747 390.749204,353.671137 393.386667,358.877867 C394.812471,361.821784 397.795647,363.691606 401.066667,363.691606 C404.337686,363.691606 407.320863,361.821784 408.746667,358.877867 C411.388111,353.674688 416.577329,350.249804 422.4,349.866667 C426.163371,350.205291 429.634648,352.036112 432.039411,354.950685 C434.444175,357.865259 435.582344,361.621086 435.2,365.380267 C435.2,376.32 425.890133,384.938667 406.519467,401.92 L406.519467,401.92 Z" id="Shape" fill="#1BC05B"></path>
            <path d="M273.066667,281.6 L187.733333,281.6 C187.733333,276.887171 183.912829,273.066667 179.2,273.066667 C174.487171,273.066667 170.666667,276.887171 170.666667,281.6 L153.6,281.6 C148.887171,281.6 145.066667,285.420504 145.066667,290.133333 C145.066667,294.846163 148.887171,298.666667 153.6,298.666667 L170.666667,298.666667 C170.666667,303.379496 174.487171,307.2 179.2,307.2 C183.912829,307.2 187.733333,303.379496 187.733333,298.666667 L273.066667,298.666667 C277.779496,298.666667 281.6,294.846163 281.6,290.133333 C281.6,285.420504 277.779496,281.6 273.066667,281.6 Z" id="Shape" fill="#2343C8"></path>
            <path d="M256,221.866667 C307.841128,221.866667 349.866667,179.841128 349.866667,128 C349.866667,76.1588715 307.841128,34.1333333 256,34.1333333 C204.158872,34.1333333 162.133333,76.1588715 162.133333,128 C162.194462,179.815788 204.184212,221.805538 256,221.866667 Z M256,51.2 C298.415468,51.2 332.8,85.5845316 332.8,128 C332.8,170.415468 298.415468,204.8 256,204.8 C213.584532,204.8 179.2,170.415468 179.2,128 C179.251721,85.6059725 213.605972,51.2517202 256,51.2 Z" id="Shape" fill="#1BC05B"></path>
            <path d="M230.9376,168.302933 C236.867457,171.609254 244.124734,171.436072 249.890133,167.850667 L290.346667,142.711467 C295.507802,139.606137 298.664202,134.023321 298.664202,128 C298.664202,121.976679 295.507802,116.393863 290.346667,113.288533 L249.890133,88.1408 C244.121012,84.5653186 236.867732,84.3954984 230.9376,87.6970667 C225.354851,90.6940083 221.870201,96.5159637 221.866667,102.852267 L221.866667,153.147733 C221.870201,159.484036 225.354851,165.305992 230.9376,168.302933 L230.9376,168.302933 Z M239.633067,102.459733 C240.057661,102.338417 240.513824,102.403583 240.887467,102.638933 L281.6,128 C281.534663,128.09429 281.446619,128.170595 281.344,128.221867 L240.887467,153.3696 C240.512,153.608533 240.034133,153.668267 238.933333,153.156267 L239.633067,102.459733 Z" id="Shape" fill="#1BC05B"></path>
        </g>
    </g>
</svg>