<svg width="512" height="512" xmlns="http://www.w3.org/2000/svg"><g fill-rule="nonzero" fill="none"><path d="M469.333 0H42.667C19.114.028.028 19.114 0 42.667v426.666C.028 492.886 19.114 511.972 42.667 512h426.666c23.553-.028 42.639-19.114 42.667-42.667V42.667C511.972 19.114 492.886.028 469.333 0Zm0 494.933H42.667c-14.139 0-25.6-11.461-25.6-25.6V42.667c0-14.139 11.461-25.6 25.6-25.6h426.666c14.139 0 25.6 11.461 25.6 25.6v25.6H42.667a8.533 8.533 0 1 0 0 17.066h452.266v384c0 14.139-11.461 25.6-25.6 25.6Z" fill="#0587FC"/><circle fill="#1BC05B" cx="42.667" cy="42.667" r="8.533"/><circle fill="#1BC05B" cx="76.8" cy="42.667" r="8.533"/><circle fill="#1BC05B" cx="110.933" cy="42.667" r="8.533"/><path d="M332.8 51.2h136.533a8.533 8.533 0 1 0 0-17.067H332.8a8.533 8.533 0 0 0 0 17.067Z" fill="#0587FC"/><path d="M460.8 145.067h-51.2v-25.6c0-9.426-7.641-17.067-17.067-17.067H119.467c-9.426 0-17.067 7.641-17.067 17.067v25.6H51.2c-9.426 0-17.067 7.64-17.067 17.066v204.8C34.133 376.36 41.774 384 51.2 384h51.2v8.533c0 9.426 7.641 17.067 17.067 17.067h273.066c9.426 0 17.067-7.641 17.067-17.067V384h51.2c9.426 0 17.067-7.641 17.067-17.067v-204.8c0-9.425-7.641-17.066-17.067-17.066Zm-341.333-25.6h273.066v209.8l-53.7-53.7a8.533 8.533 0 0 0-12.066 0l-47.113 47.112-68.335-80.725a8.84 8.84 0 0 0-13.038 0l-78.814 93.15V119.467ZM51.2 366.933v-204.8h51.2v204.8H51.2Zm68.267 25.6v-31.01L204.8 260.676l62.737 74.12-9.037 9.038a8.533 8.533 0 0 0 12.066 12.066l62.234-62.234 59.733 59.733v39.134H119.467Zm341.333-25.6h-51.2v-204.8h51.2v204.8Z" fill="#2343C8"/><path d="M298.667 238.933c18.851 0 34.133-15.282 34.133-34.133 0-18.851-15.282-34.133-34.133-34.133-18.852 0-34.134 15.282-34.134 34.133 0 18.851 15.282 34.133 34.134 34.133Zm0-51.2c9.425 0 17.066 7.641 17.066 17.067s-7.64 17.067-17.066 17.067c-9.426 0-17.067-7.641-17.067-17.067s7.641-17.067 17.067-17.067ZM238.933 213.333h8.534a8.533 8.533 0 0 0 0-17.066h-8.534a8.533 8.533 0 0 0 0 17.066ZM298.667 162.133a8.533 8.533 0 0 0 8.533-8.533v-8.533a8.533 8.533 0 0 0-17.067 0v8.533a8.533 8.533 0 0 0 8.534 8.533ZM349.867 213.333h8.533a8.533 8.533 0 0 0 0-17.066h-8.533a8.533 8.533 0 0 0 0 17.066ZM298.667 247.467a8.533 8.533 0 0 0-8.534 8.533v8.533a8.533 8.533 0 0 0 17.067 0V256a8.533 8.533 0 0 0-8.533-8.533Z" fill="#0587FC"/><circle fill="#1BC05B" cx="256" cy="452.267" r="8.533"/><circle fill="#1BC05B" cx="221.867" cy="452.267" r="8.533"/><circle fill="#1BC05B" cx="187.733" cy="452.267" r="8.533"/><circle fill="#1BC05B" cx="324.267" cy="452.267" r="8.533"/><circle fill="#1BC05B" cx="290.133" cy="452.267" r="8.533"/><path d="M151.1 429.167a8.533 8.533 0 0 0-12.066 0l-17.067 17.067a8.533 8.533 0 0 0 0 12.066l17.067 17.066A8.533 8.533 0 0 0 151.1 463.3l-11.034-11.033 11.034-11.034a8.533 8.533 0 0 0 0-12.066ZM372.966 429.167a8.533 8.533 0 0 0-12.066 12.066l11.034 11.034L360.9 463.3a8.533 8.533 0 1 0 12.066 12.066l17.067-17.066a8.533 8.533 0 0 0 0-12.066l-17.067-17.067Z" fill="#0587FC"/></g></svg>