<svg width="512" height="513" xmlns="http://www.w3.org/2000/svg"><g fill-rule="nonzero" fill="none"><path d="M486.4 281.6h-59.733V34.133C426.667 15.282 411.385 0 392.533 0H119.467c-18.852 0-34.134 15.282-34.134 34.133v245.632c-.29.273-.64.47-.921.76a25.318 25.318 0 0 0-7.56 19.72 48.384 48.384 0 0 1-15.642 36.08l-20.651 20.65a25.805 25.805 0 0 1-6.656 4.804l-19.755 9.873A25.455 25.455 0 0 0 0 394.547v81.306a25.455 25.455 0 0 0 14.148 22.895l13.893 6.946a60.04 60.04 0 0 0 26.717 6.31h80.717c12.763.159 23.822-8.815 26.291-21.337a25.694 25.694 0 0 0-3.08-17.067 25.344 25.344 0 0 0 11.614-17.067 25.694 25.694 0 0 0-3.08-17.066 25.344 25.344 0 0 0 11.613-17.067 25.694 25.694 0 0 0-3.08-17.067 25.344 25.344 0 0 0 11.613-17.066 25.6 25.6 0 0 0-25.233-29.867l-40.61.043a377.028 377.028 0 0 0 2.978-17.11h165.632v102.452c0 14.138 11.462 25.6 25.6 25.6h30.891l43.162 38.348c6.452 5.695 16.135 5.695 22.587 0l43.136-38.331H486.4c14.138 0 25.6-11.462 25.6-25.6V307.2c0-14.138-11.462-25.6-25.6-25.6ZM119.467 17.067h273.066c9.426 0 17.067 7.64 17.067 17.066v204.8H102.4v-204.8c0-9.425 7.641-17.066 17.067-17.066Zm2.065 358.4h40.601a8.533 8.533 0 0 1 8.397 10.01 9.387 9.387 0 0 1-9.455 7.056H153.6a8.533 8.533 0 0 0 0 17.067 8.533 8.533 0 0 1 8.397 10.01 9.387 9.387 0 0 1-9.455 7.057h-7.475a8.533 8.533 0 0 0 0 17.066 8.533 8.533 0 0 1 8.396 10.01 9.387 9.387 0 0 1-9.454 7.057h-7.476a8.533 8.533 0 0 0 0 17.067 8.533 8.533 0 0 1 8.397 10.01 9.387 9.387 0 0 1-9.455 7.056H54.758a42.974 42.974 0 0 1-19.089-4.505l-13.883-6.946a8.482 8.482 0 0 1-4.72-7.63v-81.305a8.482 8.482 0 0 1 4.72-7.629l19.746-9.873a42.76 42.76 0 0 0 11.093-8.004l20.65-20.65a65.323 65.323 0 0 0 20.592-49.178 8.311 8.311 0 0 1 2.56-6.622 8.172 8.172 0 0 1 5.973-2.459 8.317 8.317 0 0 1 6.076 2.613 8.166 8.166 0 0 1 2.457 5.922 305.17 305.17 0 0 1-6.144 56.43 17.067 17.067 0 0 0 16.743 20.37Zm5.12-51.2c.802-8.158 1.357-16.87 1.357-25.6a24.969 24.969 0 0 0-7.459-17.989 25.353 25.353 0 0 0-18.15-7.321V256h307.2v25.6h-93.867c-14.138 0-25.6 11.462-25.6 25.6v17.067H126.652Zm368.281 119.518a8.533 8.533 0 0 1-8.533 8.533h-33.886c-.085 0-.162-.051-.247-.051h-34.134a8.533 8.533 0 0 0 0 17.066h11.76l-28.826 25.6-28.834-25.6H384a8.533 8.533 0 0 0 0-17.066h-34.133c-.086 0-.162.05-.248.05h-33.886a8.533 8.533 0 0 1-8.533-8.532V307.2a8.533 8.533 0 0 1 8.533-8.533H486.4a8.533 8.533 0 0 1 8.533 8.533v136.585Z" fill="#0587FC"/><path d="M422.4 332.8a31.172 31.172 0 0 0-21.333 8.533 30.25 30.25 0 0 0-51.2 24.073c0 19.132 14.506 31.812 34.5 49.374a1062.71 1062.71 0 0 1 10.99 9.72 8.533 8.533 0 0 0 11.418 0c3.866-3.474 7.535-6.7 10.991-9.72 19.994-17.587 34.5-30.268 34.5-49.4A30.985 30.985 0 0 0 422.4 332.8Zm-15.88 69.12c-1.767 1.545-3.585 3.132-5.453 4.787-1.87-1.655-3.687-3.242-5.453-4.787-19.37-16.981-28.68-25.6-28.68-36.54a14.14 14.14 0 0 1 12.8-15.513 16.503 16.503 0 0 1 13.653 9.01 8.533 8.533 0 0 0 15.36 0 16.53 16.53 0 0 1 13.653-9.01 14.14 14.14 0 0 1 12.8 15.513c0 10.94-9.31 19.559-28.68 36.54Z" fill="#1BC05B"/><path d="M273.067 281.6h-85.334a8.533 8.533 0 0 0-17.066 0H153.6a8.533 8.533 0 0 0 0 17.067h17.067a8.533 8.533 0 0 0 17.066 0h85.334a8.533 8.533 0 0 0 0-17.067Z" fill="#2343C8"/><path d="M256 221.867c51.841 0 93.867-42.026 93.867-93.867S307.84 34.133 256 34.133 162.133 76.16 162.133 128c.061 51.816 42.051 93.806 93.867 93.867ZM256 51.2c42.415 0 76.8 34.385 76.8 76.8s-34.385 76.8-76.8 76.8-76.8-34.385-76.8-76.8c.052-42.394 34.406-76.748 76.8-76.8Z" fill="#1BC05B"/><path d="M230.938 168.303a18.67 18.67 0 0 0 18.952-.452l40.457-25.14a17.17 17.17 0 0 0 0-29.422L249.89 88.14a18.705 18.705 0 0 0-18.952-.444 17.212 17.212 0 0 0-9.071 15.155v50.296a17.212 17.212 0 0 0 9.07 15.155Zm8.695-65.843c.425-.122.88-.056 1.254.179L281.6 128a.683.683 0 0 1-.256.222l-40.457 25.148c-.375.239-.853.298-1.954-.214l.7-50.696Z" fill="#1BC05B"/></g></svg>