<svg width="480" height="481" xmlns="http://www.w3.org/2000/svg"><g fill-rule="nonzero" fill="none"><path d="m146.973 385.688-27-7.727v-10.152a39.82 39.82 0 0 0 16-31.793v-8a8 8 0 0 0 8-8v-8c0-26.508-21.493-48-48-48-26.512 0-48 21.492-48 48v8a8 8 0 0 0 8 8v8a39.82 39.82 0 0 0 16 31.793v10.152L44.98 385.68c-17.152 4.957-28.972 20.644-29.007 38.496v31.84a8 8 0 0 0 8 8h144a8 8 0 0 0 8-8v-31.84c-.04-17.848-11.856-33.531-29-38.488Zm-51-105.672c17.59 0 31.879 14.195 32 31.785a8.012 8.012 0 0 1-5.282-4.215l-3.558-7.137a7.988 7.988 0 0 0-5.102-4.164 8.012 8.012 0 0 0-6.5 1.074l-11.902 7.938a39.824 39.824 0 0 1-22.192 6.719h-9.464c0-17.672 14.328-32 32-32Zm-22.535 48a55.755 55.755 0 0 0 31.062-9.407l4.383-2.921a23.633 23.633 0 0 0 11.09 10v10.328c0 13.254-10.746 24-24 24s-24-10.746-24-24v-8h1.465Zm22.535 48a39.869 39.869 0 0 0 8-.801v8.8a7.924 7.924 0 0 0 2.757 5.923l-10.757 8.078-10.762-8.079a7.914 7.914 0 0 0 2.762-5.921v-8.801c2.632.535 5.312.805 8 .8Zm64 72h-16v-24h-16v24h-64v-24h-16v24h-16v-23.84a24.106 24.106 0 0 1 17.398-23.113l17.402-4.965 24.399 18.32a8.004 8.004 0 0 0 9.601 0l24.399-18.313 17.41 4.965a24.093 24.093 0 0 1 17.39 23.106v23.84Z" fill="#2443C8"/><path d="M332.98 137.68c-17.152 4.957-28.972 20.644-29.007 38.496v31.84a8 8 0 0 0 8 8h144a8 8 0 0 0 8-8v-31.84c-.04-17.848-11.856-33.531-29-38.488l-27-7.727v-10.152a39.82 39.82 0 0 0 16-31.793v-8a8 8 0 0 0 8-8v-8c0-26.508-21.493-48-48-48-26.512 0-48 21.492-48 48v8a8 8 0 0 0 8 8v8a39.82 39.82 0 0 0 16 31.793v10.152l-26.993 7.719Zm114.993 38.496v23.84h-16v-24h-16v24h-64v-24h-16v24h-16v-23.84a24.106 24.106 0 0 1 17.398-23.113l17.402-4.965 24.399 18.32a8.004 8.004 0 0 0 9.601 0l24.399-18.313 17.41 4.965a24.093 24.093 0 0 1 17.39 23.106Zm-64-144.16c17.59 0 31.879 14.195 32 31.785a8.012 8.012 0 0 1-5.282-4.215l-3.52-7.137a7.988 7.988 0 0 0-5.1-4.164 8.017 8.017 0 0 0-6.5 1.074l-11.903 7.938a39.824 39.824 0 0 1-22.191 6.719h-9.504c0-17.672 14.328-32 32-32Zm-22.536 48a55.755 55.755 0 0 0 31.063-9.407l4.383-2.921a23.633 23.633 0 0 0 11.09 10v10.328c0 13.254-10.746 24-24 24s-24-10.746-24-24v-8h1.464Zm22.536 48a39.869 39.869 0 0 0 8-.801v8.8a7.924 7.924 0 0 0 2.757 5.923l-10.757 8.078-10.762-8.078a7.914 7.914 0 0 0 2.762-5.922v-8.801c2.632.535 5.312.805 8 .8Z" fill="#16C05B"/><path d="M471.973 232.016h-224v-96.192a238.513 238.513 0 0 0 83.03-17.648l-6.062-14.817a222.51 222.51 0 0 1-76.968 16.465V16.727c22.976 3.41 45.199 21.28 63.304 51.41l13.711-8.242a155.849 155.849 0 0 0-30.152-37.102 222.769 222.769 0 0 1 30.105 9.895l6.063-14.801C233.52-22.012 121.414 6.3 54.559 87.699c-66.856 81.399-72.836 196.867-14.754 284.742l13.336-8.847a222.765 222.765 0 0 1-36.88-115.578h215.712v96.191a238.67 238.67 0 0 0-83.032 17.648l6.063 14.817a222.492 222.492 0 0 1 76.969-16.465v111.809a8 8 0 0 0 8 8c132.57.058 240.058-107.426 240-240a8 8 0 0 0-8-8Zm-120 88c-8.836 0-16-7.164-16-16s7.164-16 16-16 16 7.164 16 16-7.164 16-16 16Zm-120-303.344v103.2a223.887 223.887 0 0 1-79.84-17.75c19.71-49.794 48.832-80.856 79.84-85.45Zm-94.344 78.594a223.735 223.735 0 0 1-41.074-27.153 223.56 223.56 0 0 1 88.8-45.328 189.22 189.22 0 0 0-47.726 72.48ZM84.582 78.902a239.965 239.965 0 0 0 47.59 31.563 350.666 350.666 0 0 0-9.602 34.094c-13.57 2.27-24.152 13-26.222 26.605a31.827 31.827 0 0 0 17.113 33.203 446.08 446.08 0 0 0-1.29 27.649h-96A223.332 223.332 0 0 1 84.583 78.902Zm43.39 113.114c-8.835 0-16-7.164-16-16s7.165-16 16-16c8.837 0 16 7.164 16 16s-7.163 16-16 16Zm.184 40c.145-8.059.504-16.102 1.078-24.13 15.313-.534 28.07-11.89 30.38-27.034 2.308-15.145-6.489-29.79-20.946-34.86a332.246 332.246 0 0 1 8.137-28.8 239.761 239.761 0 0 0 85.168 18.64v96.184H128.156Zm223.633 16a447.927 447.927 0 0 1-1.082 24.129c-15.309.535-28.07 11.894-30.375 27.039-2.309 15.14 6.488 29.785 20.945 34.855a329.109 329.109 0 0 1-8.136 28.8 239.761 239.761 0 0 0-85.168-18.64v-96.183h103.816ZM247.973 463.359V360.2a223.892 223.892 0 0 1 79.84 17.754c-19.711 49.75-48.833 80.817-79.84 85.406Zm94.328-78.597a223.637 223.637 0 0 1 41.144 27.199 223.686 223.686 0 0 1-88.73 45.289 189.898 189.898 0 0 0 47.586-72.488Zm53.168 16.453a239.965 239.965 0 0 0-47.696-31.649 350.645 350.645 0 0 0 9.598-34.093c13.574-2.266 24.152-13 26.227-26.602a31.838 31.838 0 0 0-17.114-33.207 455.238 455.238 0 0 0 1.29-27.648h96.054a224.8 224.8 0 0 1-68.36 153.199Z" fill="#0787FC"/></g></svg>