<svg width="938" height="876" xmlns="http://www.w3.org/2000/svg"><g fill-rule="nonzero" fill="none"><path d="M62.5 750.25h31.25V719H62.5c-17.262 0-31.25-13.988-31.25-31.25v-625c0-17.262 13.988-31.25 31.25-31.25H750c17.262 0 31.25 13.988 31.25 31.25V94h31.25V62.75c0-34.516-27.984-62.5-62.5-62.5H62.5C27.984.25 0 28.234 0 62.75v625c0 34.516 27.984 62.5 62.5 62.5Z" fill="#0587FC"/><path fill="#1BC05B" d="M62.5 62.75h31.25V94H62.5zM125 62.75h31.25V94H125zM187.5 62.75h31.25V94H187.5z"/><path d="M125 812.75c0 34.516 27.984 62.5 62.5 62.5H875c34.516 0 62.5-27.984 62.5-62.5v-625c0-34.516-27.984-62.5-62.5-62.5H187.5c-34.516 0-62.5 27.984-62.5 62.5v625Zm31.25-625c0-17.262 13.988-31.25 31.25-31.25H875c17.262 0 31.25 13.988 31.25 31.25v625c0 17.262-13.988 31.25-31.25 31.25H187.5c-17.262 0-31.25-13.988-31.25-31.25v-625Z" fill="#0587FC"/><path fill="#1BC05B" d="M187.5 187.75h31.25V219H187.5zM250 187.75h31.25V219H250zM312.5 187.75h31.25V219H312.5z"/><path fill="#0587FC" d="M187.5 250.25H875v31.25H187.5zM187.5 328.375h125v31.25h-125zM187.5 390.875h93.75v31.25H187.5z"/><path d="M531.25 453.375c-60.41 0-109.375 48.965-109.375 109.375S470.84 672.125 531.25 672.125 640.625 623.16 640.625 562.75c-.07-60.375-49-109.305-109.375-109.375Zm0 187.5c-43.145 0-78.125-34.98-78.125-78.125s34.98-78.125 78.125-78.125 78.125 34.98 78.125 78.125c-.055 43.125-35 78.07-78.125 78.125Z" fill="#2343C8"/><path d="M781.25 515.875c0-8.633-6.992-15.625-15.625-15.625h-41.297a198.766 198.766 0 0 0-12.36-29.844l29.204-29.183c6.094-6.106 6.094-15.993 0-22.098l-66.297-66.297c-6.105-6.094-15.992-6.094-22.098 0l-29.183 29.188a202.214 202.214 0 0 0-29.844-12.344v-41.297c0-8.633-6.992-15.625-15.625-15.625h-93.75c-8.633 0-15.625 6.992-15.625 15.625v41.297a202.214 202.214 0 0 0-29.844 12.344l-29.183-29.188c-6.106-6.094-15.993-6.094-22.098 0l-66.297 66.297c-6.094 6.105-6.094 15.992 0 22.098l29.188 29.183a203.28 203.28 0 0 0-3.75 7.719 202.102 202.102 0 0 0-8.594 22.125h-41.297c-8.633 0-15.625 6.992-15.625 15.625v93.75c0 8.633 6.992 15.625 15.625 15.625h41.297a198.766 198.766 0 0 0 12.36 29.844l-29.204 29.183c-6.094 6.106-6.094 15.993 0 22.098l66.297 66.297c6.105 6.094 15.992 6.094 22.098 0l29.183-29.188a202.214 202.214 0 0 0 29.844 12.344v41.297c0 8.633 6.992 15.625 15.625 15.625h93.75c8.633 0 15.625-6.992 15.625-15.625v-41.297a202.214 202.214 0 0 0 29.844-12.344l29.183 29.188c6.106 6.094 15.993 6.094 22.098 0l66.297-66.297c6.094-6.105 6.094-15.992 0-22.098l-29.203-29.183a198.766 198.766 0 0 0 12.36-29.844h41.296c8.633 0 15.625-6.992 15.625-15.625v-93.75ZM750 594h-37.406a15.625 15.625 0 0 0-15.125 11.719 170.84 170.84 0 0 1-18.282 44.187c-3.62 6.133-2.625 13.946 2.407 18.985l26.418 26.433-44.188 44.207-26.433-26.437a15.627 15.627 0 0 0-18.993-2.407 170.654 170.654 0 0 1-44.18 18.282 15.625 15.625 0 0 0-11.718 15.125V781.5H500v-37.406a15.625 15.625 0 0 0-11.719-15.125 170.654 170.654 0 0 1-44.18-18.282 15.627 15.627 0 0 0-18.992 2.407l-26.433 26.437-44.188-44.207 26.418-26.433c5.031-5.04 6.028-12.852 2.406-18.985a170.84 170.84 0 0 1-18.28-44.187A15.625 15.625 0 0 0 349.905 594H312.5v-62.5h37.406a15.625 15.625 0 0 0 15.125-11.719 169.672 169.672 0 0 1 10.16-28.636 172.552 172.552 0 0 1 8.122-15.625 15.635 15.635 0 0 0-2.407-18.973l-26.418-26.434 44.188-44.207 26.433 26.446a15.619 15.619 0 0 0 18.993 2.394 170.926 170.926 0 0 1 44.18-18.281A15.623 15.623 0 0 0 500 381.348V344h62.5v37.406a15.625 15.625 0 0 0 11.719 15.125 170.654 170.654 0 0 1 44.18 18.281 15.627 15.627 0 0 0 18.992-2.406l26.433-26.437 44.188 44.207-26.418 26.433c-5.032 5.04-6.028 12.852-2.407 18.985a170.84 170.84 0 0 1 18.282 44.187 15.625 15.625 0 0 0 15.125 11.719H750V594Z" fill="#2343C8"/><path fill="#1BC05B" d="M781.25 781.5H875v31.25h-93.75z"/></g></svg>