<?xml version="1.0" encoding="UTF-8"?>
<svg width="512px" height="512px" viewBox="0 0 512 512" version="1.1" xmlns="http://www.w3.org/2000/svg" xmlns:xlink="http://www.w3.org/1999/xlink">
    <!-- Generator: Sketch 58 (84663) - https://sketch.com -->
    <title>003-portfolio</title>
    <desc>Created with Sketch.</desc>
    <g id="Page-1" stroke="none" stroke-width="1" fill="none" fill-rule="evenodd">
        <g id="003-portfolio" fill-rule="nonzero">
            <path d="M469.333333,0 L42.6666667,0 C19.1142131,0.028212224 0.028212224,19.1142131 0,42.6666667 L0,469.333333 C0.028212224,492.885787 19.1142131,511.971788 42.6666667,512 L469.333333,512 C492.885787,511.971788 511.971788,492.885787 512,469.333333 L512,42.6666667 C511.971788,19.1142131 492.885787,0.028212224 469.333333,0 Z M469.333333,494.933333 L42.6666667,494.933333 C28.5281771,494.933333 17.0666667,483.471823 17.0666667,469.333333 L17.0666667,42.6666667 C17.0666667,28.5281771 28.5281771,17.0666667 42.6666667,17.0666667 L469.333333,17.0666667 C483.471823,17.0666667 494.933333,28.5281771 494.933333,42.6666667 L494.933333,68.2666667 L42.6666667,68.2666667 C37.9538368,68.2666667 34.1333333,72.0871701 34.1333333,76.8 C34.1333333,81.5128299 37.9538368,85.3333333 42.6666667,85.3333333 L494.933333,85.3333333 L494.933333,469.333333 C494.933333,483.471823 483.471823,494.933333 469.333333,494.933333 Z" id="Shape" fill="#0587FC"></path>
            <circle id="Oval" fill="#1BC05B" cx="42.6666667" cy="42.6666667" r="8.53333333"></circle>
            <circle id="Oval" fill="#1BC05B" cx="76.8" cy="42.6666667" r="8.53333333"></circle>
            <circle id="Oval" fill="#1BC05B" cx="110.933333" cy="42.6666667" r="8.53333333"></circle>
            <path d="M332.8,51.2 L469.333333,51.2 C474.046163,51.2 477.866667,47.3794965 477.866667,42.6666667 C477.866667,37.9538368 474.046163,34.1333333 469.333333,34.1333333 L332.8,34.1333333 C328.087171,34.1333333 324.266667,37.9538368 324.266667,42.6666667 C324.266667,47.3794965 328.087171,51.2 332.8,51.2 Z" id="Shape" fill="#0587FC"></path>
            <path d="M460.8,145.066667 L409.6,145.066667 L409.6,119.466667 C409.6,110.041007 401.958993,102.4 392.533333,102.4 L119.466667,102.4 C110.041007,102.4 102.4,110.041007 102.4,119.466667 L102.4,145.066667 L51.2,145.066667 C41.7743403,145.066667 34.1333333,152.707674 34.1333333,162.133333 L34.1333333,366.933333 C34.1333333,376.358993 41.7743403,384 51.2,384 L102.4,384 L102.4,392.533333 C102.4,401.958993 110.041007,409.6 119.466667,409.6 L392.533333,409.6 C401.958993,409.6 409.6,401.958993 409.6,392.533333 L409.6,384 L460.8,384 C470.22566,384 477.866667,376.358993 477.866667,366.933333 L477.866667,162.133333 C477.866667,152.707674 470.22566,145.066667 460.8,145.066667 Z M119.466667,119.466667 L392.533333,119.466667 L392.533333,153.6 L392.533333,329.2672 L338.833067,275.566933 C335.500801,272.235674 330.099199,272.235674 326.766933,275.566933 L279.6544,322.679467 L211.319467,241.954133 C209.644871,240.125686 207.279414,239.084495 204.8,239.084495 C202.320586,239.084495 199.955129,240.125686 198.280533,241.954133 L119.466667,335.104 L119.466667,119.466667 Z M51.2,366.933333 L51.2,162.133333 L102.4,162.133333 L102.4,366.933333 L51.2,366.933333 Z M119.466667,392.533333 L119.466667,361.5232 L204.8,260.676267 L267.537067,334.7968 L258.500267,343.8336 C255.266371,347.1819 255.31262,352.50419 258.604215,355.795785 C261.89581,359.08738 267.2181,359.133629 270.5664,355.899733 L332.8,293.666133 L392.533333,353.399467 L392.533333,375.466667 L392.533333,375.543467 L392.533333,392.533333 L119.466667,392.533333 Z M460.8,366.933333 L409.6,366.933333 L409.6,162.133333 L460.8,162.133333 L460.8,366.933333 Z" id="Shape" fill="#2343C8"></path>
            <path d="M298.666667,238.933333 C317.517986,238.933333 332.8,223.651319 332.8,204.8 C332.8,185.948681 317.517986,170.666667 298.666667,170.666667 C279.815347,170.666667 264.533333,185.948681 264.533333,204.8 C264.533333,223.651319 279.815347,238.933333 298.666667,238.933333 Z M298.666667,187.733333 C308.092326,187.733333 315.733333,195.37434 315.733333,204.8 C315.733333,214.22566 308.092326,221.866667 298.666667,221.866667 C289.241007,221.866667 281.6,214.22566 281.6,204.8 C281.6,195.37434 289.241007,187.733333 298.666667,187.733333 Z" id="Shape" fill="#0587FC"></path>
            <path d="M238.933333,213.333333 L247.466667,213.333333 C252.179496,213.333333 256,209.512829 256,204.8 C256,200.087171 252.179496,196.266667 247.466667,196.266667 L238.933333,196.266667 C234.220504,196.266667 230.4,200.087171 230.4,204.8 C230.4,209.512829 234.220504,213.333333 238.933333,213.333333 Z" id="Shape" fill="#0587FC"></path>
            <path d="M298.666667,162.133333 C303.379496,162.133333 307.2,158.312829 307.2,153.6 L307.2,145.066667 C307.2,140.353837 303.379496,136.533333 298.666667,136.533333 C293.953837,136.533333 290.133333,140.353837 290.133333,145.066667 L290.133333,153.6 C290.133333,158.312829 293.953837,162.133333 298.666667,162.133333 Z" id="Shape" fill="#0587FC"></path>
            <path d="M349.866667,213.333333 L358.4,213.333333 C363.112829,213.333333 366.933333,209.512829 366.933333,204.8 C366.933333,200.087171 363.112829,196.266667 358.4,196.266667 L349.866667,196.266667 C345.153837,196.266667 341.333333,200.087171 341.333333,204.8 C341.333333,209.512829 345.153837,213.333333 349.866667,213.333333 Z" id="Shape" fill="#0587FC"></path>
            <path d="M298.666667,247.466667 C293.953837,247.466667 290.133333,251.287171 290.133333,256 L290.133333,264.533333 C290.133333,269.246163 293.953837,273.066667 298.666667,273.066667 C303.379496,273.066667 307.2,269.246163 307.2,264.533333 L307.2,256 C307.2,251.287171 303.379496,247.466667 298.666667,247.466667 Z" id="Shape" fill="#0587FC"></path>
            <circle id="Oval" fill="#1BC05B" cx="256" cy="452.266667" r="8.53333333"></circle>
            <circle id="Oval" fill="#1BC05B" cx="221.866667" cy="452.266667" r="8.53333333"></circle>
            <circle id="Oval" fill="#1BC05B" cx="187.733333" cy="452.266667" r="8.53333333"></circle>
            <circle id="Oval" fill="#1BC05B" cx="324.266667" cy="452.266667" r="8.53333333"></circle>
            <circle id="Oval" fill="#1BC05B" cx="290.133333" cy="452.266667" r="8.53333333"></circle>
            <path d="M151.099733,429.166933 C147.767468,425.835674 142.365866,425.835674 139.0336,429.166933 L121.966933,446.2336 C118.635674,449.565866 118.635674,454.967468 121.966933,458.299733 L139.0336,475.3664 C142.3819,478.600296 147.70419,478.554047 150.995785,475.262452 C154.28738,471.970857 154.333629,466.648567 151.099733,463.300267 L140.066133,452.266667 L151.099733,441.233067 C154.430992,437.900801 154.430992,432.499199 151.099733,429.166933 L151.099733,429.166933 Z" id="Shape" fill="#0587FC"></path>
            <path d="M372.9664,429.166933 C369.6181,425.933037 364.29581,425.979286 361.004215,429.270881 C357.71262,432.562476 357.666371,437.884767 360.900267,441.233067 L371.933867,452.266667 L360.900267,463.300267 C358.68197,465.442769 357.792319,468.615491 358.573251,471.598996 C359.354183,474.582501 361.684166,476.912484 364.667671,477.693416 C367.651175,478.474348 370.823898,477.584696 372.9664,475.3664 L390.033067,458.299733 C393.364326,454.967468 393.364326,449.565866 390.033067,446.2336 L372.9664,429.166933 Z" id="Shape" fill="#0587FC"></path>
        </g>
    </g>
</svg>