<?xml version="1.0" encoding="UTF-8"?>
<svg width="512px" height="410px" viewBox="0 0 512 410" version="1.1" xmlns="http://www.w3.org/2000/svg" xmlns:xlink="http://www.w3.org/1999/xlink">
    <!-- Generator: Sketch 58 (84663) - https://sketch.com -->
    <title>plane</title>
    <desc>Created with Sketch.</desc>
    <g id="Page-1" stroke="none" stroke-width="1" fill="none" fill-rule="evenodd">
        <g id="plane" fill-rule="nonzero">
            <path d="M128,392.733 L93.867,392.733 C89.157,392.733 85.334,396.556 85.334,401.266 C85.334,405.976 89.157,409.799 93.867,409.799 L128,409.799 C132.71,409.799 136.533,405.976 136.533,401.266 C136.533,396.556 132.71,392.733 128,392.733 Z" id="Path" fill="#2643C8"></path>
            <path d="M128,341.533 L42.667,341.533 C37.957,341.533 34.134,345.356 34.134,350.066 C34.134,354.776 37.957,358.599 42.667,358.599 L128,358.599 C132.71,358.599 136.533,354.776 136.533,350.066 C136.533,345.356 132.71,341.533 128,341.533 Z" id="Path" fill="#2643C8"></path>
            <path d="M128,290.333 L76.8,290.333 C72.09,290.333 68.267,294.156 68.267,298.866 C68.267,303.576 72.09,307.4 76.8,307.4 L128,307.4 C132.71,307.4 136.533,303.577 136.533,298.867 C136.533,294.157 132.71,290.333 128,290.333 Z" id="Path" fill="#2643C8"></path>
            <path d="M93.867,68.467 L128,68.467 C132.71,68.467 136.533,64.644 136.533,59.934 C136.533,55.224 132.71,51.401 128,51.401 L93.867,51.401 C89.157,51.401 85.3339998,55.224 85.3339998,59.934 C85.333,64.644 89.156,68.467 93.867,68.467 Z" id="Path" fill="#2643C8"></path>
            <path d="M179.2,85.533 C183.91,85.533 187.733,81.71 187.733,77 L187.733,17.267 L226.398,17.267 C227.439,17.267 230.084,18.76 231.1,21.073 L256.7,80.38 C258.091,83.606 261.231,85.534 264.534,85.534 C265.669,85.534 266.812,85.312 267.913,84.834 C272.239,82.965 274.236,77.948 272.367,73.621 L246.75,14.271 C243.183,6.113 234.624,0.2 226.398,0.2 L187.733,0.2 C178.321,0.2 170.666,8.042 170.666,17.693 L170.666,77 C170.666,81.71 174.49,85.533 179.2,85.533 Z" id="Path" fill="#0587FC"></path>
            <path d="M187.733,153.8 C187.733,144.388 180.079,136.733 170.666,136.733 C161.254,136.733 153.599,144.387 153.599,153.8 C153.599,163.213 161.253,170.867 170.666,170.867 C180.079,170.867 187.733,163.212 187.733,153.8 Z" id="Path" fill="#16C261"></path>
            <path d="M110.933,17.267 L128,17.267 C132.71,17.267 136.533,13.444 136.533,8.734 C136.533,4.024 132.71,0.201 128,0.201 L110.933,0.201 C106.223,0.201 102.4,4.024 102.4,8.734 C102.4,13.444 106.223,17.267 110.933,17.267 Z" id="Path" fill="#2643C8"></path>
            <path d="M324.267,136.733 C314.855,136.733 307.2,144.387 307.2,153.8 C307.2,163.213 314.854,170.867 324.267,170.867 C333.679,170.867 341.334,163.213 341.334,153.8 C341.334,144.387 333.679,136.733 324.267,136.733 Z" id="Path" fill="#16C261"></path>
            <path d="M349.867,239.133 L452.267,239.133 C456.977,239.133 460.8,235.31 460.8,230.6 C460.8,225.89 456.977,222.067 452.267,222.067 L349.867,222.067 C345.157,222.067 341.334,225.89 341.334,230.6 C341.334,235.31 345.156,239.133 349.867,239.133 Z" id="Path" fill="#16C261"></path>
            <path d="M102.4,153.8 C102.4,163.212 110.054,170.867 119.467,170.867 C128.88,170.867 136.534,163.213 136.534,153.8 C136.534,144.387 128.88,136.733 119.467,136.733 C110.054,136.733 102.4,144.388 102.4,153.8 Z" id="Path" fill="#16C261"></path>
            <path d="M290.133,153.8 C290.133,144.388 282.479,136.733 273.066,136.733 C263.654,136.733 255.999,144.387 255.999,153.8 C255.999,163.213 263.653,170.867 273.066,170.867 C282.479,170.867 290.133,163.212 290.133,153.8 Z" id="Path" fill="#16C261"></path>
            <path d="M459.213,154.201 C453.632,133.32 436.48,102.6 401.067,102.6 L69.111,102.6 L54.237,65.429 C51.046,57.041 42.964,51.4 34.133,51.4 L17.067,51.4 C7.654,51.4 0,59.054 0,68.467 L0,128.2 C0,209.548 63.718,273.267 145.067,273.267 C149.777,273.267 153.6,269.444 153.6,264.734 C153.6,260.024 149.777,256.201 145.067,256.201 C73.293,256.201 17.067,199.975 17.067,128.201 L17.067,68.468 L34.134,68.468 C35.346,68.468 37.445,69.279 38.341,71.642 L55.408,114.309 C56.705,117.543 59.845,119.668 63.335,119.668 L360.269,119.668 L367.189,147.342 C367.274,147.675 367.377,148.008 367.496,148.332 C372.846,162.233 384.144,170.868 396.979,170.868 L418.133,170.868 C422.843,170.868 426.666,167.045 426.666,162.335 C426.666,157.625 422.843,153.802 418.133,153.802 L396.979,153.802 C389.111,153.802 385.109,146.344 383.607,142.657 L377.864,119.668 L401.066,119.668 C435.891,119.668 443.545,161.959 443.852,163.743 C444.535,167.848 448.093,170.868 452.266,170.868 C475.792,170.868 494.933,190.008 494.933,213.535 C494.933,237.062 475.793,256.202 452.266,256.202 L313.054,256.202 L323.448,234.254 C325.462,229.996 323.644,224.91 319.386,222.888 C315.136,220.883 310.042,222.683 308.02,226.95 L231.177,389.177 C230.247,391.208 227.636,392.735 226.398,392.735 L187.733,392.735 L187.733,239.135 L281.6,239.135 C286.31,239.135 290.133,235.312 290.133,230.602 C290.133,225.892 286.31,222.069 281.6,222.069 L179.2,222.069 C174.49,222.069 170.667,225.892 170.667,230.602 L170.667,392.735 C170.667,402.147 178.321,409.802 187.734,409.802 L226.399,409.802 C234.557,409.802 243.09,404.119 246.649,396.388 L304.966,273.269 L452.268,273.269 C485.207,273.269 512.001,246.474 512.001,213.536 C512.001,182.95 488.892,157.649 459.213,154.201 Z" id="Path" fill="#0587FC"></path>
            <path d="M238.933,153.8 C238.933,144.388 231.279,136.733 221.866,136.733 C212.454,136.733 204.799,144.387 204.799,153.8 C204.799,163.213 212.453,170.867 221.866,170.867 C231.279,170.867 238.933,163.212 238.933,153.8 Z" id="Path" fill="#16C261"></path>
        </g>
    </g>
</svg>