<?xml version="1.0" encoding="UTF-8"?>
<svg width="512px" height="394px" viewBox="0 0 512 394" version="1.1" xmlns="http://www.w3.org/2000/svg" xmlns:xlink="http://www.w3.org/1999/xlink">
    <!-- Generator: Sketch 58 (84663) - https://sketch.com -->
    <title>scooter</title>
    <desc>Created with Sketch.</desc>
    <g id="Page-1" stroke="none" stroke-width="1" fill="none" fill-rule="evenodd">
        <g id="scooter" fill-rule="nonzero">
            <path d="M8.533,290.862 L238.933,290.862 C241.51,290.862 243.942,289.701 245.555,287.696 L356.318,151.163 C357.786,149.362 358.451,147.041 358.161,144.737 L349.628,76.47 C349.193,73.014 346.71,70.172 343.347,69.276 C339.976,68.354 336.418,69.626 334.336,72.408 L308.736,106.541 C305.903,110.304 306.662,115.655 310.443,118.479 C314.215,121.321 319.565,120.544 322.381,116.781 L335.309,99.544 L340.779,143.243 L234.863,273.795 L17.451,273.795 C21.777,226.017 62.055,188.462 110.934,188.462 L206.891,188.462 L222.191,242.009 C223.266,245.747 226.688,248.196 230.392,248.196 C231.177,248.196 231.962,248.085 232.739,247.863 C237.279,246.566 239.898,241.847 238.61,237.316 L224.573,188.181 C242.116,186.781 256,172.223 256,154.329 C256,135.504 240.691,120.196 221.867,120.196 L76.8,120.196 C62.686,120.196 51.2,131.673 51.2,145.796 L51.2,162.863 C51.2,171.183 55.253,178.513 61.423,183.198 C50.057,188.898 39.8,196.45 31.07,205.53 L17.067,205.53 C12.348,205.53 8.534,209.344 8.534,214.063 C8.534,218.773 12.348,222.596 17.067,222.596 L17.605,222.596 C6.519,239.858 0,260.321 0,282.329 C0,287.039 3.814,290.862 8.533,290.862 Z M68.267,145.795 C68.267,141.085 72.09,137.262 76.8,137.262 L221.867,137.262 C231.271,137.262 238.934,144.916 238.934,154.329 C238.934,163.741 231.271,171.396 221.867,171.396 L76.8,171.396 C72.09,171.396 68.267,167.565 68.267,162.863 L68.267,145.795 Z" id="Shape" fill="#0587FC"></path>
            <path d="M503.467,376.212 L366.933,376.212 C362.214,376.212 358.4,380.035 358.4,384.745 C358.4,389.455 362.214,393.278 366.933,393.278 L503.466,393.278 C508.185,393.278 511.999,389.455 511.999,384.745 C511.999,380.035 508.186,376.212 503.467,376.212 Z" id="Path" fill="#2543C8"></path>
            <path d="M160.811,204.377 C157.449,207.679 157.415,213.081 160.726,216.443 C170.42,226.273 177.938,238.314 182.486,251.259 C183.706,254.783 187.009,256.976 190.533,256.976 C191.463,256.976 192.427,256.822 193.358,256.498 C197.804,254.936 200.142,250.064 198.589,245.618 C193.222,230.309 184.338,216.076 172.878,204.462 C169.566,201.1 164.164,201.066 160.811,204.377 Z" id="Path" fill="#1BC261"></path>
            <path d="M334.336,48.515 C335.94,50.665 338.475,51.928 341.154,51.928 L392.533,51.928 C400.554,51.928 405.947,47.405 409.173,44.7 C409.318,44.581 409.455,44.461 409.6,44.333 L409.6,76.76 C409.327,76.538 409.045,76.308 408.806,76.094 C405.495,73.269 400.477,68.994 392.533,68.994 L375.287,68.994 C372.428,68.994 369.766,70.419 368.187,72.791 C366.608,75.172 366.318,78.184 367.419,80.812 L410.256,183.212 C411.587,186.386 414.693,188.46 418.132,188.46 C445.729,188.46 471.585,200.552 489.3,221.305 L324.992,270.63 C329.361,235.737 353.05,205.691 386.662,193.804 C391.108,192.234 393.437,187.361 391.867,182.916 C390.297,178.479 385.441,176.14 380.987,177.711 C336.853,193.31 307.199,235.354 307.199,282.33 C307.199,285.027 308.47,287.561 310.638,289.174 C312.131,290.283 313.915,290.864 315.732,290.864 C316.56,290.864 317.379,290.744 318.181,290.506 L505.914,234.143 C508.508,233.366 510.565,231.412 511.486,228.878 C512.408,226.344 512.075,223.519 510.59,221.266 C491.023,191.647 458.929,173.351 423.874,171.542 L388.102,86.064 L392.531,86.064 C394.033,86.064 395.27,86.986 397.736,89.085 C400.467,91.415 404.196,94.598 409.597,94.598 C419.334,94.598 426.664,87.259 426.664,77.531 L426.664,43.398 C426.664,33.986 419.01,26.331 409.597,26.331 C404.537,26.331 401.029,29.258 398.214,31.622 C395.816,33.627 394.255,34.865 392.531,34.865 L345.419,34.865 L322.379,4.145 C319.554,0.373 314.204,-0.403 310.441,2.438 C306.661,5.263 305.901,10.613 308.734,14.385 L334.336,48.515 Z" id="Path" fill="#0587FC"></path>
            <path d="M417.954,307.929 C407.612,307.929 398.344,301.759 394.334,292.219 C392.516,287.867 387.507,285.836 383.164,287.645 C378.821,289.471 376.773,294.472 378.599,298.815 C385.263,314.721 400.717,324.995 417.955,324.995 C441.481,324.995 460.622,305.846 460.622,282.328 C460.622,278.667 460.161,275.023 459.231,271.482 C458.036,266.925 453.36,264.186 448.82,265.389 C444.255,266.575 441.524,271.234 442.719,275.8 C443.274,277.925 443.555,280.126 443.555,282.328 C443.554,296.443 432.077,307.929 417.954,307.929 Z" id="Path" fill="#2543C8"></path>
            <path d="M128,376.212 L8.533,376.212 C3.814,376.212 0,380.035 0,384.745 C0,389.455 3.814,393.278 8.533,393.278 L128,393.278 C132.719,393.278 136.533,389.455 136.533,384.745 C136.533,380.035 132.719,376.212 128,376.212 Z" id="Path" fill="#2543C8"></path>
            <path d="M264.533,376.212 L179.2,376.212 C174.481,376.212 170.667,380.035 170.667,384.745 C170.667,389.455 174.481,393.278 179.2,393.278 L264.533,393.278 C269.252,393.278 273.066,389.455 273.066,384.745 C273.066,380.035 269.252,376.212 264.533,376.212 Z" id="Path" fill="#2543C8"></path>
            <path d="M332.8,376.212 L315.733,376.212 C311.014,376.212 307.2,380.035 307.2,384.745 C307.2,389.455 311.014,393.278 315.733,393.278 L332.8,393.278 C337.519,393.278 341.333,389.455 341.333,384.745 C341.333,380.035 337.519,376.212 332.8,376.212 Z" id="Path" fill="#2543C8"></path>
            <path d="M174.268,309.072 C170.198,306.708 164.975,308.108 162.611,312.178 C151.936,330.61 132.13,342.062 110.933,342.062 C89.736,342.062 69.93,330.61 59.255,312.178 C56.9,308.108 51.677,306.717 47.598,309.072 C43.519,311.436 42.12,316.658 44.492,320.737 C58.205,344.417 83.669,359.128 110.933,359.128 C138.197,359.128 163.66,344.417 177.373,320.737 C179.738,316.658 178.347,311.436 174.268,309.072 Z" id="Path" fill="#0587FC"></path>
            <path d="M123.742,304.533 C115.96,309.013 105.805,308.97 98.048,304.422 C93.969,302.033 88.738,303.398 86.374,307.468 C83.993,311.53 85.35,316.761 89.412,319.15 C95.94,322.973 103.398,324.995 110.993,324.995 C118.46,324.995 125.815,323.032 132.258,319.32 C136.337,316.973 137.753,311.751 135.39,307.664 C133.052,303.585 127.821,302.186 123.742,304.533 Z" id="Path" fill="#2543C8"></path>
            <path d="M417.894,359.146 C424.055,359.146 430.31,358.395 436.531,356.851 C477.619,346.602 502.707,304.84 492.476,263.752 C491.333,259.178 486.725,256.379 482.125,257.531 C477.56,258.674 474.778,263.308 475.913,267.873 C483.875,299.83 464.359,332.317 432.402,340.287 C403.013,347.617 372.745,331.788 362.07,303.457 C360.406,299.045 355.482,296.827 351.079,298.482 C346.667,300.137 344.432,305.061 346.104,309.473 C357.564,339.92 386.594,359.146 417.894,359.146 Z" id="Path" fill="#0587FC"></path>
        </g>
    </g>
</svg>