<?xml version="1.0" encoding="UTF-8"?>
<svg width="500px" height="500px" viewBox="0 0 500 500" version="1.1" xmlns="http://www.w3.org/2000/svg" xmlns:xlink="http://www.w3.org/1999/xlink">
    <!-- Generator: Sketch 58 (84663) - https://sketch.com -->
    <title>004-refresh</title>
    <desc>Created with Sketch.</desc>
    <g id="Page-1" stroke="none" stroke-width="1" fill="none" fill-rule="evenodd">
        <g id="004-refresh">
            <rect id="Rectangle" fill="#0587FC" x="0" y="0" width="500" height="500" rx="67"></rect>
            <g id="004-wireframe-1" transform="translate(100.000000, 110.000000)" fill="#FFFFFF" fill-rule="nonzero">
                <path d="M284.002458,45.75 C286.252552,41.5 287.502604,36.5 287.502604,31.25 C287.502604,14 273.502021,0 256.251302,0 C239.000583,0 225,14 225,31.25 C225,48.5 239.000583,62.5 256.251302,62.5 C261.501521,62.5 266.501729,61.25 270.751906,59 L284.002458,72.25 C285.827534,74.0875 288.227634,75 290.627734,75 C293.027834,75 295.427934,74.0875 297.253011,72.25 C300.915663,68.5875 300.915663,62.65 297.253011,58.9875 L284.002458,45.75 Z M243.750781,31.25 C243.750781,24.375 249.376016,18.75 256.251302,18.75 C263.126589,18.75 268.751823,24.375 268.751823,31.25 C268.751823,38.125 263.126589,43.75 256.251302,43.75 C249.376016,43.75 243.750781,38.125 243.750781,31.25 Z" id="Shape"></path>
                <path d="M21.875,75 L178.125,75 C190.1875,75 200,65.1875 200,53.125 L200,21.875 C200,9.8125 190.1875,0 178.125,0 L21.875,0 C9.8125,0 0,9.8125 0,21.875 L0,53.125 C0,65.1875 9.8125,75 21.875,75 Z" id="Path"></path>
                <path d="M278.045455,112 L183.954545,112 C171.910909,112 162,121.88963 162,133.907407 L162,259.092593 C162,271.11037 171.910909,281 183.954545,281 L278.045455,281 C290.089091,281 300,271.11037 300,259.092593 L300,133.907407 C300,121.88963 290.089091,112 278.045455,112 Z M180.818182,133.907407 C180.818182,132.154815 182.198182,130.777778 183.954545,130.777778 L278.045455,130.777778 C279.801818,130.777778 281.181818,132.154815 281.181818,133.907407 L281.181818,191.742963 L279.3,189.48963 C270.894545,179.474815 253.832727,179.474815 245.427273,189.48963 L232.630909,205.012593 C231.752727,205.888889 230.749091,206.139259 230.247273,206.139259 C229.870909,206.139259 228.867273,206.014074 227.989091,205.262963 L221.465455,198.753333 C212.934545,190.240741 198.883636,190.240741 190.352727,198.753333 L180.818182,208.267407 L180.818182,133.907407 Z" id="Shape"></path>
                <path d="M9.40909091,131 L128.590909,131 C133.784727,131 138,126.744 138,121.5 C138,116.256 133.784727,112 128.590909,112 L9.40909091,112 C4.21527273,112 0,116.256 0,121.5 C0,126.744 4.21527273,131 9.40909091,131 Z" id="Path"></path>
                <path d="M9.40909091,169 L128.590909,169 C133.784727,169 138,164.744 138,159.5 C138,154.256 133.784727,150 128.590909,150 L9.40909091,150 C4.21527273,150 0,154.256 0,159.5 C0,164.744 4.21527273,169 9.40909091,169 Z" id="Path"></path>
                <path d="M9.40909091,206 L128.590909,206 C133.784727,206 138,201.744 138,196.5 C138,191.256 133.784727,187 128.590909,187 L9.40909091,187 C4.21527273,187 0,191.256 0,196.5 C0,201.744 4.21527273,206 9.40909091,206 Z" id="Path"></path>
                <path d="M9.40909091,244 L128.590909,244 C133.784727,244 138,239.744 138,234.5 C138,229.256 133.784727,225 128.590909,225 L9.40909091,225 C4.21527273,225 0,229.256 0,234.5 C0,239.744 4.21527273,244 9.40909091,244 Z" id="Path"></path>
                <path d="M9.40909091,281 L128.590909,281 C133.784727,281 138,276.744 138,271.5 C138,266.256 133.784727,262 128.590909,262 L9.40909091,262 C4.21527273,262 0,266.256 0,271.5 C0,276.744 4.21527273,281 9.40909091,281 Z" id="Path"></path>
            </g>
        </g>
    </g>
</svg>