<?xml version="1.0" encoding="UTF-8"?>
<svg width="500px" height="500px" viewBox="0 0 500 500" version="1.1" xmlns="http://www.w3.org/2000/svg" xmlns:xlink="http://www.w3.org/1999/xlink">
    <!-- Generator: Sketch 58 (84663) - https://sketch.com -->
    <title>004-refresh</title>
    <desc>Created with Sketch.</desc>
    <g id="Page-1" stroke="none" stroke-width="1" fill="none" fill-rule="evenodd">
        <g id="004-refresh">
            <rect id="Rectangle" fill="#34BEFF" x="0" y="0" width="500" height="500" rx="67"></rect>
            <g id="002-pantone" transform="translate(100.000000, 100.000000)" fill="#FFFFFF" fill-rule="nonzero">
                <path d="M207.870268,48.2542263 L147.206714,13.1630389 C144.283169,11.4735889 141.157639,10.4720866 138,10 C140.280225,15.3076108 141.562778,21.1411273 141.562778,27.2764985 L141.562778,216 L217.490295,84.2188032 C224.725017,71.6479612 220.415007,55.5121925 207.870268,48.2542263 Z" id="Path"></path>
                <rect id="Rectangle" x="0" y="106" width="124" height="70"></rect>
                <path d="M97.5545024,0 L26.4454976,0 C11.8628626,0 0,11.7640265 0,26.2251656 L0,88 L124,88 L124,26.2251656 C124,11.7640265 112.137137,0 97.5545024,0 Z" id="Path"></path>
                <path d="M62,229 C57.0344,229 53,233.0344 53,238 C53,242.9656 57.0344,247 62,247 C66.9656,247 71,242.9656 71,238 C71,233.0344 66.9656,229 62,229 Z" id="Path"></path>
                <path d="M0,194 L0,273.646409 C0,288.178365 11.8628626,300 26.4454976,300 L97.5545024,300 C112.137137,300 124,288.178365 124,273.646409 L124,194 L0,194 Z M62.2938389,264.276243 C47.7112038,264.276243 35.8483412,252.454608 35.8483412,237.922652 C35.8483412,223.390696 47.7112038,211.569061 62.2938389,211.569061 C76.8764739,211.569061 88.7393365,223.390696 88.7393365,237.922652 C88.7393365,252.454608 76.8764739,264.276243 62.2938389,264.276243 Z" id="Shape"></path>
                <path d="M285.456272,149.583788 L250.216568,88.8491482 C247.290557,83.8121063 242.904775,80.1742753 237.917564,78 C237.083324,83.0715541 235.470697,88.0916323 232.742811,92.7993449 L141,250.900804 L141,263 L275.759342,185.589482 C288.410502,178.314405 292.759247,162.162646 285.456272,149.583788 Z" id="Path"></path>
                <path d="M296.903185,191 C293.573479,195.05825 289.579708,198.594549 284.884329,201.295962 L139.296492,285.20032 C137.801175,290.635257 135.328533,295.622391 132,300 L273.601693,300 C288.158306,300 300,288.21467 300,273.727343 L300,203.083087 C300,198.703143 298.815009,194.634384 296.903185,191 Z" id="Path"></path>
            </g>
        </g>
    </g>
</svg>