<svg width="70" height="70" viewBox="0 0 70 70" fill="none" xmlns="http://www.w3.org/2000/svg">
<path fill-rule="evenodd" clip-rule="evenodd" d="M7 14L7.0001 13.9629V20.9998H63V56C63 59.866 59.866 63 56 63H14C10.134 63 7 59.866 7 56V14ZM14 0C6.26801 0 0 6.26801 0 14V56C0 63.732 6.26801 70 14 70H56C63.732 70 70 63.732 70 56V14C70 6.26801 63.732 0 56 0H14ZM23.4748 37.4751C24.8416 36.1082 24.8416 33.8922 23.4748 32.5253C22.1079 31.1585 19.8919 31.1585 18.525 32.5253L11.525 39.5253C10.1582 40.8922 10.1582 43.1082 11.525 44.4751L18.525 51.4751C19.8919 52.8419 22.1079 52.8419 23.4748 51.4751C24.8416 50.1082 24.8416 47.8922 23.4748 46.5253L18.9497 42.0002L23.4748 37.4751ZM39.6062 28.18C41.44 28.7912 42.4311 30.7734 41.8198 32.6072L34.8198 53.6072C34.2085 55.441 32.2264 56.432 30.3926 55.8208C28.5588 55.2095 27.5677 53.2274 28.179 51.3936L35.179 30.3936C35.7903 28.5598 37.7724 27.5687 39.6062 28.18ZM46.5252 46.5251C45.1584 47.892 45.1584 50.108 46.5252 51.4749C47.8921 52.8417 50.1081 52.8417 51.475 51.4749L58.475 44.4749C59.8418 43.108 59.8418 40.892 58.475 39.5251L51.475 32.5251C50.1081 31.1583 47.8921 31.1583 46.5252 32.5251C45.1584 33.892 45.1584 36.108 46.5252 37.4749L51.0503 42L46.5252 46.5251Z" fill="#3E78FF"/>
</svg>
