<?xml version="1.0" encoding="UTF-8"?>
<svg width="513px" height="342px" viewBox="0 0 513 342" version="1.1" xmlns="http://www.w3.org/2000/svg" xmlns:xlink="http://www.w3.org/1999/xlink">
    <!-- Generator: Sketch 58 (84663) - https://sketch.com -->
    <title>car</title>
    <desc>Created with Sketch.</desc>
    <g id="Page-1" stroke="none" stroke-width="1" fill="none" fill-rule="evenodd">
        <g id="car" fill-rule="nonzero">
            <path d="M73.438,102.073 C77.764,103.916 82.782,101.919 84.642,97.593 L110.029,38.312 C117.154,24.07 128.29,17.431 145.067,17.431 L264.534,17.431 C285.261,17.431 304.41,28.473 317.372,48.16 L368.333,115.898 C370.569,119.968 381.09,136.898 400.99,136.898 L426.59,136.898 C463.207,136.898 477.73,157.165 483.388,171.031 L469.257,171.031 C464.538,171.031 460.724,174.854 460.724,179.564 C460.724,184.274 464.538,188.097 469.257,188.097 L487.604,188.097 L494.61,231.327 C495.199,233.588 495.011,235.363 494.03,236.618 C492.724,238.325 489.908,239.297 486.324,239.297 L460.041,239.297 C455.885,210.395 431.019,188.097 400.99,188.097 C368.06,188.097 341.257,214.892 341.257,247.83 C341.257,280.769 368.06,307.563 400.99,307.563 C431.019,307.563 455.885,285.265 460.041,256.363 L486.324,256.363 C495.378,256.363 502.913,253.052 507.546,247.045 C511.796,241.541 513.059,234.416 511.284,227.802 L503.229,177.891 C497.606,149.825 474.531,119.83 426.591,119.83 L400.991,119.83 C389.582,119.83 383.25,107.61 383.208,107.542 C382.978,107.056 382.696,106.595 382.372,106.168 L331.326,38.345 C315.684,14.563 290.716,0.363 264.536,0.363 L145.067,0.363 C121.754,0.363 104.824,10.56 94.558,31.134 L68.958,90.867 C67.098,95.204 69.111,100.222 73.438,102.073 Z M400.99,290.498 C377.464,290.498 358.323,271.358 358.323,247.831 C358.323,224.305 377.463,205.164 400.99,205.164 C424.516,205.164 443.657,224.304 443.657,247.831 C443.657,271.358 424.516,290.498 400.99,290.498 Z" id="Shape" fill="#0787FC"></path>
            <path d="M503.467,324.631 L366.933,324.631 C362.214,324.631 358.4,328.454 358.4,333.164 C358.4,337.874 362.214,341.697 366.933,341.697 L503.466,341.697 C508.185,341.697 511.999,337.874 511.999,333.164 C511.999,328.454 508.186,324.631 503.467,324.631 Z" id="Path" fill="#2443C8"></path>
            <path d="M25.6,256.364 L30.003,256.364 C34.713,256.364 38.536,252.541 38.536,247.831 C38.536,243.121 34.713,239.298 30.003,239.298 L25.6,239.298 C20.898,239.298 17.067,235.467 17.067,230.765 L17.067,188.098 L25.6,188.098 C30.31,188.098 34.133,184.275 34.133,179.565 C34.133,174.855 30.31,171.032 25.6,171.032 L17.067,171.032 L17.067,145.432 C17.067,140.73 20.898,136.899 25.6,136.899 L189.269,136.899 L204.962,215.372 C205.773,219.425 209.34,222.233 213.325,222.233 C213.88,222.233 214.443,222.182 215.006,222.071 C219.631,221.141 222.626,216.644 221.696,212.027 L206.677,136.9 L349.79,136.9 C354.509,136.9 358.323,133.077 358.323,128.367 C358.323,123.657 354.509,119.834 349.79,119.834 L320.93,119.834 L331.827,98.048 C333.935,93.833 332.228,88.713 328.004,86.605 C323.78,84.489 318.677,86.204 316.561,90.419 L301.85,119.833 L204.8,119.833 L204.8,43.033 C204.8,38.323 200.977,34.5 196.267,34.5 C191.557,34.5 187.734,38.323 187.734,43.033 L187.734,119.833 L25.6,119.833 C11.486,119.833 0,131.319 0,145.433 L0,230.766 C0,244.879 11.486,256.364 25.6,256.364 Z" id="Path" fill="#0787FC"></path>
            <path d="M324.19,247.831 C324.19,243.121 320.376,239.298 315.657,239.298 L169.984,239.298 C165.828,210.396 140.962,188.098 110.933,188.098 C77.994,188.098 51.2,214.893 51.2,247.831 C51.2,280.77 77.995,307.564 110.933,307.564 C140.962,307.564 165.828,285.266 169.984,256.364 L315.657,256.364 C320.375,256.364 324.19,252.542 324.19,247.831 Z M110.933,290.498 C87.407,290.498 68.266,271.358 68.266,247.831 C68.266,224.305 87.406,205.164 110.933,205.164 C134.459,205.164 153.6,224.304 153.6,247.831 C153.6,271.358 134.46,290.498 110.933,290.498 Z" id="Shape" fill="#0787FC"></path>
            <path d="M400.99,222.231 C386.876,222.231 375.39,233.717 375.39,247.831 C375.39,261.945 386.876,273.431 400.99,273.431 C415.113,273.431 426.59,261.945 426.59,247.831 C426.59,233.717 415.113,222.231 400.99,222.231 Z M400.99,256.364 C396.288,256.364 392.457,252.533 392.457,247.831 C392.457,243.129 396.288,239.298 400.99,239.298 C405.7,239.298 409.523,243.129 409.523,247.831 C409.523,252.533 405.7,256.364 400.99,256.364 Z" id="Shape" fill="#2443C8"></path>
            <path d="M238.933,153.964 C234.223,153.964 230.4,157.787 230.4,162.497 C230.4,167.207 234.223,171.03 238.933,171.03 L247.466,171.03 C252.176,171.03 255.999,167.207 255.999,162.497 C255.999,157.787 252.176,153.964 247.466,153.964 L238.933,153.964 Z" id="Path" fill="#16C05B"></path>
            <path d="M264.533,324.631 L179.2,324.631 C174.49,324.631 170.667,328.454 170.667,333.164 C170.667,337.874 174.49,341.697 179.2,341.697 L264.533,341.697 C269.252,341.697 273.066,337.874 273.066,333.164 C273.066,328.454 269.252,324.631 264.533,324.631 Z" id="Path" fill="#2443C8"></path>
            <path d="M110.933,222.231 C96.819,222.231 85.333,233.717 85.333,247.831 C85.333,261.945 96.819,273.431 110.933,273.431 C125.047,273.431 136.533,261.945 136.533,247.831 C136.533,233.717 125.047,222.231 110.933,222.231 Z M110.933,256.364 C106.231,256.364 102.4,252.533 102.4,247.831 C102.4,243.129 106.231,239.298 110.933,239.298 C115.635,239.298 119.466,243.129 119.466,247.831 C119.467,252.533 115.635,256.364 110.933,256.364 Z" id="Shape" fill="#2443C8"></path>
            <path d="M128,324.631 L8.533,324.631 C3.823,324.631 0,328.454 0,333.164 C0,337.874 3.823,341.697 8.533,341.697 L128,341.697 C132.71,341.697 136.533,337.874 136.533,333.164 C136.533,328.454 132.71,324.631 128,324.631 Z" id="Path" fill="#2443C8"></path>
            <path d="M332.8,324.631 L315.733,324.631 C311.014,324.631 307.2,328.454 307.2,333.164 C307.2,337.874 311.014,341.697 315.733,341.697 L332.8,341.697 C337.519,341.697 341.333,337.874 341.333,333.164 C341.333,328.454 337.519,324.631 332.8,324.631 Z" id="Path" fill="#2443C8"></path>
        </g>
    </g>
</svg>