<?xml version="1.0" encoding="UTF-8"?>
<svg width="2079px" height="602px" viewBox="0 0 2079 602" version="1.1" xmlns="http://www.w3.org/2000/svg" xmlns:xlink="http://www.w3.org/1999/xlink">
    <!-- Generator: Sketch 58 (84663) - https://sketch.com -->
    <title>logotype</title>
    <desc>Created with Sketch.</desc>
    <g id="Page-1" stroke="none" stroke-width="1" fill="none" fill-rule="evenodd">
        <g id="logotype" transform="translate(-28.000000, -28.000000)" fill-rule="nonzero">
            <path d="M446.929909,96.7526148 L777.505543,96.6717119 C814.508612,96.6299361 844.51287,126.61952 844.521921,163.622597 C844.521921,163.633522 844.521921,163.644448 844.489153,163.655365 L844.408294,494.230999 C844.366461,531.221269 814.382177,561.205553 777.391907,561.247385 L446.816273,561.328288 C409.813204,561.370064 379.808946,531.38048 379.799895,494.377403 C379.799895,494.366478 379.799895,494.355552 379.832664,494.344635 L379.913523,163.769001 C379.955355,126.778731 409.939639,96.7944472 446.929909,96.7526148 Z" id="Rectangle-Copy" fill="#2342C8" transform="translate(612.160908, 329.000000) rotate(-45.000000) translate(-612.160908, -329.000000) "></path>
            <path d="M163.608093,96.7526148 L494.183727,96.671712 C531.186796,96.6299361 561.191054,126.61952 561.200105,163.622597 C561.200105,163.633522 561.200105,163.644448 561.167336,163.655365 L561.086477,494.230999 C561.044645,531.221269 531.060361,561.205553 494.070091,561.247385 L163.494457,561.328288 C126.491388,561.370064 96.4871297,531.38048 96.4780786,494.377403 C96.4780786,494.366478 96.4780786,494.355552 96.5108472,494.344635 L96.5917064,163.769001 C96.6335388,126.778731 126.617823,96.7944472 163.608093,96.7526148 Z" id="Rectangle" fill="#1460D8" transform="translate(328.839092, 329.000000) rotate(-45.000000) translate(-328.839092, -329.000000) "></path>
            <path d="M227,174 L355.4,174 C418.866984,174.266668 450.6,197.999764 450.6,245.2 C450.6,260.666744 446.066712,273.73328 437,284.4 C427.933288,295.06672 414.600088,301.73332 397,304.4 L397,304.8 C416.733432,307.46668 431.733282,314.333278 442,325.4 C452.266718,336.466722 457.4,350.266584 457.4,366.8 C457.4,389.733448 449.266748,407.333272 433,419.6 C416.733252,431.866728 392.866824,438 361.4,438 L227,438 L227,174 Z M343,282 C367.800124,282 380.2,272.400096 380.2,253.2 C380.2,233.999904 367.800124,224.4 343,224.4 L293.4,224.4 L293.4,282 L343,282 Z M349.8,389.6 C362.066728,389.6 371.333302,387.066692 377.6,382 C383.866698,376.933308 387,369.600048 387,360 C387,350.66662 383.866698,343.533358 377.6,338.6 C371.333302,333.666642 362.066728,331.2 349.8,331.2 L293.4,331.2 L293.4,389.6 L349.8,389.6 Z M579.8,234 C613.1335,234 639.066574,243.133242 657.6,261.4 C676.133426,279.666758 685.4,305.199836 685.4,338 C685.4,370.800164 676.133426,396.333242 657.6,414.6 C639.066574,432.866758 613.1335,442 579.8,442 C546.4665,442 520.533426,432.866758 502,414.6 C483.466574,396.333242 474.2,370.800164 474.2,338 C474.2,305.199836 483.466574,279.666758 502,261.4 C520.533426,243.133242 546.4665,234 579.8,234 Z M579.8,282.4 C566.999936,282.4 557.533364,286.799956 551.4,295.6 C545.354255,304.274329 542.288244,318.130519 542.201878,337.168976 L542.2,338 C542.2,357.466764 545.266636,371.599956 551.4,380.4 C557.533364,389.200044 566.999936,393.6 579.8,393.6 C592.600064,393.6 602.066636,389.200044 608.2,380.4 C614.333364,371.599956 617.4,357.466764 617.4,338 C617.4,318.533236 614.333364,304.400044 608.2,295.6 C602.066636,286.799956 592.600064,282.4 579.8,282.4 Z M808.6,234 C841.9335,234 867.866574,243.133242 886.4,261.4 C904.933426,279.666758 914.2,305.199836 914.2,338 C914.2,370.800164 904.933426,396.333242 886.4,414.6 C867.866574,432.866758 841.9335,442 808.6,442 C775.2665,442 749.333426,432.866758 730.8,414.6 C712.266574,396.333242 703,370.800164 703,338 C703,305.199836 712.266574,279.666758 730.8,261.4 C749.333426,243.133242 775.2665,234 808.6,234 Z M808.6,282.4 C795.799936,282.4 786.333364,286.799956 780.2,295.6 C774.154255,304.274329 771.088244,318.130519 771.001878,337.168976 L771,338 C771,357.466764 774.066636,371.599956 780.2,380.4 C786.333364,389.200044 795.799936,393.6 808.6,393.6 C821.400064,393.6 830.866636,389.200044 837,380.4 C843.133364,371.599956 846.2,357.466764 846.2,338 C846.2,318.533236 843.133364,304.400044 837,295.6 C830.866636,286.799956 821.400064,282.4 808.6,282.4 Z M1024.2,442 C978.333104,442 945.800096,430.266784 926.6,406.8 L961.8,368.4 C973.266724,387.333428 992.99986,396.8 1021,396.8 C1030.33338,396.8 1037.66664,395.533346 1043,393 C1048.33336,390.466654 1051,387.066688 1051,382.8 C1051,379.066648 1048.26669,375.800014 1042.8,373 C1037.33331,370.199986 1027.9334,367.46668 1014.6,364.8 L1012.66436,364.414365 C983.81262,358.584473 963.191366,350.713093 950.8,340.8 C938.13327,330.666616 931.8,317.200084 931.8,300.4 C931.8,288.933276 935.399964,278.133384 942.6,268 C949.800036,257.866616 960.666594,249.666698 975.2,243.4 C989.733406,237.133302 1007.3999,234 1028.2,234 C1051.13345,234 1069.86659,237.133302 1084.4,243.4 C1098.93341,249.666698 1110.73329,259.066604 1119.8,271.6 L1084.6,306 C1078.19997,296.66662 1070.60004,289.866688 1061.8,285.6 C1052.99996,281.333312 1042.46673,279.2 1030.2,279.2 C1020.59995,279.2 1013.13336,280.666652 1007.8,283.6 C1002.46664,286.533348 999.8,290.133312 999.8,294.4 C999.8,298.40002 1002.53331,301.799986 1008,304.6 L1008.6125,304.905191 C1014.1654,307.598712 1023.49448,310.23029 1036.6,312.8 C1065.93348,317.866692 1087.0666,325.39995 1100,335.4 C1112.9334,345.40005 1119.4,359.06658 1119.4,376.4 C1119.4,395.866764 1111.26675,411.666606 1095,423.8 C1078.73325,435.933394 1055.13349,442 1024.2,442 Z M1287.8,426.8 C1281.1333,431.333356 1272.66672,434.999986 1262.4,437.8 C1252.13328,440.600014 1241.80005,442 1231.4,442 C1207.66655,442 1189.5334,436.933384 1177,426.8 C1164.4666,416.666616 1158.06667,400.400112 1157.8,378 L1157.8,286.4 L1123.4,286.4 L1123.4,238 L1157.8,238 L1157.8,193.2 L1225.8,174.4 L1225.8,238 L1285.8,238 L1285.8,286.4 L1225.8,286.4 L1225.8,366.8 C1225.8,384.666756 1234.59991,393.6 1252.2,393.6 C1263.13339,393.6 1272.73329,390.666696 1281,384.8 L1287.8,426.8 Z M1554.2,378.4 L1463,378.4 L1444.6,438 L1375.4,438 L1468.2,174 L1550.6,174 L1643,438 L1572.2,438 L1554.2,378.4 Z M1539.8,331.6 L1520.6,268.4 L1509,226.8 L1508.2,226.8 L1497.4,268 L1477.4,331.6 L1539.8,331.6 Z M1785.4,234 C1811.53346,234 1831.79993,243.066576 1846.2,261.2 C1860.60007,279.333424 1867.8,304.666504 1867.8,337.2 C1867.8,370.266832 1860.46674,395.999908 1845.8,414.4 C1831.13326,432.800092 1811.00013,442 1785.4,442 C1771.2666,442 1759.06672,438.6667 1748.8,432 C1738.53328,425.3333 1730.60003,416.133392 1725,404.4 L1725,522 L1657,522 L1657,238 L1716.6,238 L1718.6,280.4 C1724.20003,266.266596 1732.79994,255.000042 1744.4,246.6 C1756.00006,238.199958 1769.66659,234 1785.4,234 Z M1761.8,392 C1773.80006,392 1783.06663,387.600044 1789.6,378.8 C1796.13337,369.999956 1799.4,356.400092 1799.4,338 C1799.4,319.599908 1796.13337,306.000044 1789.6,297.2 C1783.06663,288.399956 1773.80006,284 1761.8,284 C1750.33328,284 1741.33337,288.399956 1734.8,297.2 C1728.26663,306.000044 1725,318.933248 1725,336 L1725,340 C1725,356.533416 1728.19997,369.333288 1734.6,378.4 C1741.00003,387.466712 1750.06661,392 1761.8,392 Z M2024.6,234 C2050.73346,234 2070.99993,243.066576 2085.4,261.2 C2099.80007,279.333424 2107,304.666504 2107,337.2 C2107,370.266832 2099.66674,395.999908 2085,414.4 C2070.33326,432.800092 2050.20013,442 2024.6,442 C2010.4666,442 1998.26672,438.6667 1988,432 C1977.73328,425.3333 1969.80003,416.133392 1964.2,404.4 L1964.2,522 L1896.2,522 L1896.2,238 L1955.8,238 L1957.8,280.4 C1963.40003,266.266596 1971.99994,255.000042 1983.6,246.6 C1995.20006,238.199958 2008.86659,234 2024.6,234 Z M2001,392 C2013.00006,392 2022.26663,387.600044 2028.8,378.8 C2035.33337,369.999956 2038.6,356.400092 2038.6,338 C2038.6,319.599908 2035.33337,306.000044 2028.8,297.2 C2022.26663,288.399956 2013.00006,284 2001,284 C1989.53328,284 1980.53337,288.399956 1974,297.2 C1967.46663,306.000044 1964.2,318.933248 1964.2,336 L1964.2,340 C1964.2,356.533416 1967.39997,369.333288 1973.8,378.4 C1980.20003,387.466712 1989.26661,392 2001,392 Z" id="BoostApp." fill="#FFFFFF"></path>
        </g>
    </g>
</svg>